<svg width="24" height="24" viewBox="0 0 24 24" fill="none" xmlns="http://www.w3.org/2000/svg">
<path d="M6.08 11.6202C6.12759 11.4974 6.19896 11.3853 6.29 11.2902L11.29 6.29019C11.3832 6.19695 11.4939 6.12299 11.6158 6.07253C11.7376 6.02207 11.8681 5.99609 12 5.99609C12.2663 5.99609 12.5217 6.10188 12.71 6.29019C12.8032 6.38342 12.8772 6.49411 12.9277 6.61594C12.9781 6.73776 13.0041 6.86833 13.0041 7.00019C13.0041 7.26649 12.8983 7.52188 12.71 7.71019L9.41 11.0002H17C17.2652 11.0002 17.5196 11.1055 17.7071 11.2931C17.8946 11.4806 18 11.735 18 12.0002C18 12.2654 17.8946 12.5198 17.7071 12.7073C17.5196 12.8948 17.2652 13.0002 17 13.0002H9.41L12.71 16.2902C12.8037 16.3831 12.8781 16.4937 12.9289 16.6156C12.9797 16.7375 13.0058 16.8682 13.0058 17.0002C13.0058 17.1322 12.9797 17.2629 12.9289 17.3848C12.8781 17.5066 12.8037 17.6172 12.71 17.7102C12.617 17.8039 12.5064 17.8783 12.3846 17.9291C12.2627 17.9798 12.132 18.006 12 18.006C11.868 18.006 11.7373 17.9798 11.6154 17.9291C11.4936 17.8783 11.383 17.8039 11.29 17.7102L6.29 12.7102C6.19896 12.6151 6.12759 12.5029 6.08 12.3802C5.97998 12.1367 5.97998 11.8636 6.08 11.6202Z" fill="white" fill-opacity="0.6"/>
</svg>
