<svg width="24" height="24" viewBox="0 0 24 24" fill="none" xmlns="http://www.w3.org/2000/svg">
<path d="M5.20237 2.37085C7.95375 4.41875 10.9136 8.5705 12 10.7985V16.6832C12 16.5579 11.9513 16.6995 11.8463 17.0044C11.2793 18.6555 9.0645 25.0993 4.00012 19.9479C1.3335 17.2356 2.568 14.5234 7.422 13.7045C4.64512 14.1729 1.52325 13.3988 0.66675 10.3642C0.42 9.49125 0 4.11418 0 3.38794C0 -0.249882 3.21712 0.893562 5.20237 2.37085ZM18.7976 2.37085C16.0462 4.41875 13.0864 8.5705 12 10.7985V16.6832C12 16.5579 12.0487 16.6995 12.1537 17.0044C12.7207 18.6555 14.9355 25.0993 19.9999 19.9479C22.6665 17.2356 21.432 14.5234 16.578 13.7045C19.3549 14.1729 22.4767 13.3988 23.3333 10.3642C23.58 9.49125 24 4.11418 24 3.38794C24 -0.249882 20.7832 0.893562 18.7976 2.37085Z" fill="#F9E357"/>
</svg>
