<svg width="52" height="56" viewBox="0 0 52 56" fill="none" xmlns="http://www.w3.org/2000/svg">
<path d="M20.001 15L27.7952 1.5H12.2068L20.001 15Z" fill="#F9E357"/>
<path d="M32.001 4L39.7952 17.5H24.2068L32.001 4Z" fill="#F9E357"/>
<path d="M15.7949 21.5H0.207031L8.00098 35L15.7949 21.5ZM1.93945 22.5H14.0625L8.00098 33L1.93945 22.5Z" fill="#F9E357"/>
<path d="M27.7949 37.5H12.207L20.001 24L27.7949 37.5ZM13.9395 36.5H26.0625L20.001 26L13.9395 36.5Z" fill="#F9E357"/>
<path d="M32.001 35L39.7952 21.5H24.2068L32.001 35Z" fill="#F9E357"/>
<path d="M44.001 24L51.7952 37.5H36.2068L44.001 24Z" fill="#F9E357"/>
<path d="M20.001 55L27.7952 41.5H12.2068L20.001 55Z" fill="#F9E357"/>
</svg>
