<svg width="40" height="53" viewBox="0 0 40 53" fill="none" xmlns="http://www.w3.org/2000/svg">
<path d="M39.7949 14.5H24.207L32.001 1L39.7949 14.5ZM25.9395 13.5H38.0625L32.001 3L25.9395 13.5Z" fill="#F9E357"/>
<path d="M15.7949 18.5H0.207031L8.00098 32L15.7949 18.5ZM1.93945 19.5H14.0625L8.00098 30L1.93945 19.5Z" fill="#F9E357"/>
<path d="M27.7949 34.5H12.207L20.001 21L27.7949 34.5ZM13.9395 33.5H26.0625L20.001 23L13.9395 33.5Z" fill="#F9E357"/>
<path d="M39.7949 18.5H24.207L32.001 32L39.7949 18.5ZM25.9395 19.5H38.0625L32.001 30L25.9395 19.5Z" fill="#F9E357"/>
<path d="M20.001 52L27.7952 38.5H12.2068L20.001 52Z" fill="#F9E357"/>
</svg>
