<svg width="597" height="205" viewBox="0 0 597 205" fill="none" xmlns="http://www.w3.org/2000/svg">
<g clip-path="url(#paint0_diamond_357_1160_clip_path)" data-figma-skip-parse="true"><g transform="matrix(-0.043 0.26625 -0.461751 -0.0745739 297 102.75)"><rect x="0" y="0" width="569.73" height="677.312" fill="url(#paint0_diamond_357_1160)" opacity="0.2" shape-rendering="crispEdges"/><rect x="0" y="0" width="569.73" height="677.312" transform="scale(1 -1)" fill="url(#paint0_diamond_357_1160)" opacity="0.2" shape-rendering="crispEdges"/><rect x="0" y="0" width="569.73" height="677.312" transform="scale(-1 1)" fill="url(#paint0_diamond_357_1160)" opacity="0.2" shape-rendering="crispEdges"/><rect x="0" y="0" width="569.73" height="677.312" transform="scale(-1)" fill="url(#paint0_diamond_357_1160)" opacity="0.2" shape-rendering="crispEdges"/></g></g><path d="M266.5 65.1719V134H167.5V200.5H434.172L587.172 47.5H444V43.5H596.828L435.828 204.5H163.5V130H262.5V66.8281L201.5 5.82812L3.41406 203.914L0.585938 201.086L201.5 0.171875L266.5 65.1719Z" data-figma-gradient-fill="{&#34;type&#34;:&#34;GRADIENT_DIAMOND&#34;,&#34;stops&#34;:[{&#34;color&#34;:{&#34;r&#34;:1.0,&#34;g&#34;:1.0,&#34;b&#34;:1.0,&#34;a&#34;:1.0},&#34;position&#34;:0.0},{&#34;color&#34;:{&#34;r&#34;:1.0,&#34;g&#34;:1.0,&#34;b&#34;:1.0,&#34;a&#34;:0.0},&#34;position&#34;:1.0}],&#34;stopsVar&#34;:[{&#34;color&#34;:{&#34;r&#34;:1.0,&#34;g&#34;:1.0,&#34;b&#34;:1.0,&#34;a&#34;:1.0},&#34;position&#34;:0.0},{&#34;color&#34;:{&#34;r&#34;:1.0,&#34;g&#34;:1.0,&#34;b&#34;:1.0,&#34;a&#34;:0.0},&#34;position&#34;:1.0}],&#34;transform&#34;:{&#34;m00&#34;:-85.999977111816406,&#34;m01&#34;:-923.50225830078125,&#34;m02&#34;:801.75109863281250,&#34;m10&#34;:532.50,&#34;m11&#34;:-149.14775085449219,&#34;m12&#34;:-88.926124572753906},&#34;opacity&#34;:0.20000000298023224,&#34;blendMode&#34;:&#34;NORMAL&#34;,&#34;visible&#34;:true}"/>
<defs>
<clipPath id="paint0_diamond_357_1160_clip_path"><path d="M266.5 65.1719V134H167.5V200.5H434.172L587.172 47.5H444V43.5H596.828L435.828 204.5H163.5V130H262.5V66.8281L201.5 5.82812L3.41406 203.914L0.585938 201.086L201.5 0.171875L266.5 65.1719Z"/></clipPath><linearGradient id="paint0_diamond_357_1160" x1="0" y1="0" x2="500" y2="500" gradientUnits="userSpaceOnUse">
<stop stop-color="white"/>
<stop offset="1" stop-color="white" stop-opacity="0"/>
</linearGradient>
</defs>
</svg>
