<svg width="41" height="32" viewBox="0 0 41 32" fill="none" xmlns="http://www.w3.org/2000/svg">
<path d="M0 32V23.1977C0 20.5998 0.479007 17.8644 1.43702 14.9914C2.39503 12.1184 3.72727 9.36771 5.43373 6.73925C7.1402 4.11079 9.14604 1.86437 11.4513 0L18.0975 4.85959C16.2713 7.57975 14.7145 10.4222 13.4272 13.3868C12.1398 16.3515 11.4962 19.5759 11.4962 23.0602V32H0ZM22.9025 32V23.1977C22.9025 20.5998 23.3815 17.8644 24.3395 14.9914C25.2976 12.1184 26.6298 9.36771 28.3363 6.73925C30.0427 4.11079 32.0486 1.86437 34.3538 0L41 4.85959C39.1738 7.57975 37.617 10.4222 36.3297 13.3868C35.0424 16.3515 34.3987 19.5759 34.3987 23.0602V32H22.9025Z" fill="#9C9263"/>
</svg>
