<svg width="50" height="53" viewBox="0 0 50 53" fill="none" xmlns="http://www.w3.org/2000/svg">
<path d="M49.8689 23.9473C48.9995 23.3434 48.1322 22.7353 47.2499 22.15C46.2114 21.4604 45.224 20.6936 44.1514 20.0548C43.6101 19.7325 43.1058 19.3523 42.5993 18.9757C42.4757 18.8835 42.3933 18.8313 42.3677 18.6498C42.2875 18.0767 42.2605 17.5007 42.2399 16.9262C42.2029 15.9121 41.8641 15.0281 41.1353 14.3371C40.4037 13.6432 39.6713 12.9508 39.0029 12.1954C38.279 11.3779 37.3364 10.9441 36.3249 10.6568C35.5805 10.4453 34.7955 10.4096 34.0646 10.108C33.2427 9.76857 32.4741 9.37267 31.8554 8.70737C31.3561 8.16997 30.9036 7.60614 30.7615 6.8708C30.6052 6.06257 30.4426 5.25648 30.363 4.43039C30.2273 3.02402 29.9205 1.64196 29.6044 0.26489C29.5319 -0.0495413 29.4644 -0.0781259 29.2272 0.147693C28.9523 0.408528 28.6923 0.685799 28.4259 0.955924C26.5137 2.89539 24.8316 4.9935 23.7419 7.53539C23.1694 8.8703 22.9179 10.2688 22.7368 11.6866C22.6239 12.5699 22.6274 13.4674 22.5123 14.3543C22.3454 15.6391 21.8155 16.7432 20.9226 17.6729C19.8486 18.7906 18.5174 19.3258 16.9944 19.3987C16.3338 19.4302 15.6704 19.403 15.0083 19.4238C14.2156 19.4488 13.7397 19.9176 13.6807 20.7079C13.6693 20.8616 13.6509 21.0223 13.6814 21.171C13.783 21.6676 13.6118 22.0264 13.1906 22.2879C13.0613 22.3687 12.9469 22.4773 12.8347 22.5824C12.5442 22.8546 12.3133 23.1583 12.363 23.5928C12.3779 23.7229 12.3239 23.8194 12.233 23.9073C11.3415 24.7669 10.4515 25.6288 9.56144 26.4899C8.95765 27.0744 8.34818 27.654 7.75434 28.2485C7.57391 28.4286 7.4084 28.6302 7.39277 28.9174C7.36365 29.4577 7.63287 29.8214 8.06475 30.0744C8.49877 30.3281 8.98464 30.2752 9.37178 29.92C10.2696 29.0968 11.1661 28.2707 12.0391 27.4203C14.4351 25.0871 16.9007 22.826 19.2526 20.4457C19.4103 20.2863 19.5964 20.1912 19.8443 20.2027C20.0567 20.2127 20.289 20.2827 20.485 20.1033C20.8402 19.7782 21.2067 19.4652 21.564 19.1422C21.6557 19.0593 21.6464 18.9593 21.6308 18.827C21.5946 18.5119 21.9476 18.151 22.2481 18.1382C22.5386 18.1253 22.8256 18.3468 22.8654 18.6141C22.9314 19.0607 22.7674 19.3473 22.3681 19.4102C22.1209 19.4495 21.9313 19.5567 21.7636 19.731C21.3531 20.1584 20.8949 20.5393 20.534 21.0145C20.3884 21.2067 20.2059 21.2753 19.958 21.2946C19.7193 21.3132 19.4501 21.2803 19.2434 21.4933C17.4654 23.3206 15.6327 25.0921 13.8007 26.8636C12.7274 27.9012 11.6498 28.9346 10.5836 29.9808C9.91519 30.6368 9.20343 31.2456 8.57123 31.9403C8.16065 32.3912 8.27004 33.005 8.74242 33.3788C8.91858 33.6267 9.15441 33.7189 9.45915 33.7289C9.7994 33.7404 10.0523 33.571 10.3208 33.4131C10.5623 33.3823 10.7129 33.2001 10.8741 33.0508C11.7315 32.2568 12.579 31.4515 13.4342 30.6554C13.5258 30.5703 13.4974 30.5089 13.4669 30.4124C13.3433 30.0208 13.4697 29.6978 13.7702 29.4362C14.0579 29.1861 14.4045 29.2333 14.7071 29.3419C14.9962 29.4462 15.1007 29.7157 15.144 30.0494C15.2129 30.5832 14.6837 30.9248 14.2071 30.992C14.0728 31.0113 13.9343 30.9584 13.8107 31.082C13.0563 31.8359 12.2941 32.5827 11.5348 33.3316C11.4651 33.3723 11.3835 33.4016 11.3273 33.4567C10.4977 34.2799 9.66941 35.1053 8.84471 35.9342C8.61243 36.1679 8.54992 36.4652 8.56838 36.7875C8.61029 37.5028 9.01093 37.9738 9.63034 38.2303C9.92087 38.3504 10.0111 38.5533 10.0835 38.7934C10.2988 39.5102 10.8798 39.6645 11.414 39.1336C13.1693 37.3899 14.9245 35.647 16.6748 33.8983C16.8289 33.7439 17.0299 33.621 17.0981 33.3909C17.2779 33.3902 17.3603 33.2423 17.4661 33.1365C19.2973 31.3157 21.113 29.4791 22.9648 27.6804C23.3875 27.2695 23.629 26.8779 23.575 26.2676C23.5267 25.7238 23.5558 25.1743 23.8563 24.6633C24.2868 23.9308 24.865 23.347 25.4709 22.766C26.9655 21.3332 28.4217 19.8611 29.8985 18.409C30.0192 18.2904 30.162 18.2053 30.3573 18.2082C30.9476 18.2175 31.5386 18.1996 32.1296 18.1996C32.526 18.1996 32.6752 18.3404 32.6723 18.6877C32.6688 19.0393 32.5132 19.1915 32.1389 19.2001C31.9734 19.2036 31.805 19.2144 31.643 19.1886C31.2168 19.1208 30.91 19.2908 30.6123 19.5903C29.1661 21.0431 27.7042 22.4802 26.2473 23.9223C25.8112 24.3539 25.2003 24.7091 24.9815 25.2322C24.7613 25.7581 24.8948 26.4513 24.941 27.0666C24.9737 27.5003 24.7876 27.7776 24.5127 28.052C22.751 29.8114 20.9929 31.5744 19.2341 33.3359C19.0338 33.4995 18.8093 33.641 18.6367 33.8297C17.5812 34.9838 16.4446 36.055 15.3287 37.1469C14.5771 37.8823 13.8064 38.5976 13.0705 39.348C12.3176 40.1155 11.5781 40.8958 10.7889 41.6262C10.4685 41.922 10.1532 42.2186 9.86689 42.5509C9.7028 42.741 9.66728 42.9318 9.66373 43.1633C9.65876 43.5213 9.95213 43.665 10.1496 43.8672C10.384 44.1073 10.6809 44.1237 10.997 44.0173C11.5433 43.8336 11.9091 43.4077 12.2977 43.0268C13.5379 41.8077 14.7569 40.5678 15.9815 39.333C17.8 37.4993 19.6156 35.6634 21.4326 33.8283C21.564 33.6954 21.6962 33.5624 21.7672 33.3831C21.9625 33.3523 22.0584 33.1865 22.1792 33.0629C24.404 30.8019 26.6209 28.533 28.9033 26.3298C29.2869 25.9596 29.5362 25.5323 29.4673 24.9699C29.4573 24.8877 29.4602 24.8027 29.4673 24.7205C29.495 24.3982 29.8281 24.0602 30.1066 24.068C30.4475 24.0773 30.6471 24.336 30.672 24.7326C30.7466 25.9196 30.3275 26.8829 29.4815 27.7097C27.6829 29.467 25.9127 31.2528 24.1312 33.0279C24.0403 33.1187 23.9259 33.1915 23.894 33.3295C23.1971 33.9733 22.4846 34.6015 21.8063 35.2639C20.8842 36.1636 19.9942 37.0962 19.0793 38.0038C17.8546 39.2193 16.6272 40.4328 15.3862 41.6319C14.4521 42.5352 13.5777 43.4992 12.5882 44.346C12.3431 44.5561 12.0476 44.7776 12.01 45.1557C11.9688 45.568 12.0597 45.9753 12.4135 46.1847C12.7665 46.3934 13.187 46.442 13.5962 46.2383C13.9954 46.0396 14.2603 45.6945 14.5786 45.4029C15.6121 44.4546 16.5128 43.3777 17.5293 42.413C18.4861 41.5054 19.4096 40.5628 20.3479 39.636C21.5193 38.4783 22.6892 37.3177 23.8641 36.1629C24.345 35.6906 24.816 35.2096 25.3118 34.7516C25.7756 34.3235 26.2672 33.9097 26.6195 33.3695C26.9648 33.3187 27.0962 33.0007 27.3007 32.7878C27.9521 32.1082 28.5197 31.35 29.2137 30.7097C29.3501 30.5832 29.4445 30.431 29.4573 30.2488C29.485 29.8529 29.6832 29.5706 29.9794 29.3248C30.9 28.5608 31.7581 27.7276 32.6013 26.8779C32.7405 26.7378 32.835 26.6314 32.7441 26.3963C32.624 26.0868 32.7853 25.7695 33.0339 25.6288C33.2868 25.4858 33.6327 25.4787 33.9104 25.6416C34.2571 25.8453 34.1733 26.2126 34.1285 26.5135C34.0873 26.7872 33.843 26.9479 33.5688 26.9822C33.3677 27.0073 33.2179 27.0873 33.0865 27.2324C32.3378 28.0585 31.4996 28.7931 30.7061 29.5734C30.4973 29.7793 30.2962 29.9751 30.2295 30.2916C30.1712 30.5668 29.9929 30.7962 29.794 31.0062C29.0745 31.7687 28.2789 32.4605 27.6758 33.3302C27.4655 33.5681 27.3576 33.8333 27.3952 34.1649C27.4187 34.3685 27.31 34.5457 27.1672 34.6951C26.8845 34.9909 26.6089 35.2932 26.324 35.5869C25.8708 36.0536 25.4127 36.5167 24.9552 36.9797C24.0992 37.8458 23.2426 38.7112 22.3866 39.5774C22.1458 39.821 22.0591 40.1005 22.2239 40.4199C22.8029 41.5454 24.2392 41.7641 25.0035 40.943C25.5448 40.362 26.1152 39.8075 26.6842 39.2529C26.9761 38.9678 27.2816 38.6426 27.7177 38.6576C28.1347 38.6726 28.4259 38.4726 28.7292 38.2532C28.8251 38.1839 28.9217 38.1138 29.0269 38.0617C29.3401 37.9052 29.6683 38.0038 29.8494 38.2996C30.0384 38.6076 29.9773 38.9942 29.6967 39.2979C29.3714 39.6502 28.9842 39.9111 28.5722 40.1555C27.9479 40.5257 27.5288 41.1159 27.1224 41.7026C26.942 41.9627 26.8021 42.1414 26.4249 42.0192C25.9028 41.8498 25.397 42.0292 25.0546 42.4315C24.713 42.8324 24.4914 43.3041 24.7705 43.8822C25.0916 44.5468 25.8843 44.9834 26.4782 44.7462C27.3789 44.386 27.5898 43.7764 27.3292 42.8596C27.2169 42.4637 27.3 42.2793 27.5352 42.0506C27.6623 41.927 27.7767 41.7877 27.9116 41.6733C28.0516 41.5547 28.188 41.4304 28.3968 41.4275C29.0595 41.4182 29.5447 41.0066 30.01 40.6193C30.6159 40.1147 30.7715 39.4123 30.7679 38.6283C30.7601 36.8804 30.7004 35.1303 30.8098 33.3831C30.883 32.6098 31.0393 31.8609 31.3802 31.1549C31.8114 30.2638 32.3953 29.5013 33.1966 28.921C34.0802 28.2807 35.0917 28.0142 36.1608 27.9227C37.5999 27.7991 38.9631 28.2521 40.334 28.5465C41.1793 28.7281 42.0083 28.8846 42.8664 28.8917C43.3956 28.896 43.9326 28.8881 44.4448 28.7652C45.9891 28.395 47.2712 27.5675 48.3183 26.3763C48.7764 25.8546 49.2012 25.3022 49.6331 24.7576C49.7496 24.6111 49.8299 24.4354 49.9435 24.286C50.0629 24.1295 49.9748 24.0252 49.864 23.9487L49.8689 23.9473ZM27.4499 8.76096C27.6545 8.11638 27.8186 7.45536 28.1752 6.83721C28.5296 7.15736 28.4856 7.59971 28.5971 7.97631C28.8507 8.82671 29.0084 9.70854 29.0333 10.5904C29.0539 11.3386 28.6824 11.9324 27.9706 12.2754C27.3448 12.577 27.3114 12.5985 27.2041 11.9303C27.0329 10.8605 27.121 9.79644 27.4499 8.76025V8.76096ZM32.2681 16.7539C32.1126 16.8433 31.9641 16.9562 31.7617 16.8497C31.2502 16.5796 30.6997 16.7053 30.1663 16.7289C29.4722 16.7597 28.8713 17.0777 28.2817 17.4214C28.0913 17.5329 27.9663 17.7015 27.8172 17.8502C24.9239 20.7258 22.0307 23.6007 19.1375 26.4756C19.129 26.4842 19.1205 26.492 19.112 26.5006C18.6943 26.9115 18.6765 26.9322 19.1148 27.3231C20.1959 28.2871 19.5687 29.9779 18.435 30.3474C17.5925 30.6218 16.868 30.3981 16.3502 29.6778C15.8423 28.9717 15.8621 28.0656 16.4056 27.3167C16.7423 26.8522 17.177 26.4784 17.5854 26.0875C19.6184 24.1431 21.5882 22.1329 23.5956 20.1627C24.3983 19.3752 25.1754 18.5626 25.9973 17.7937C26.9804 16.8747 28.1411 16.3545 29.4481 16.1344C29.5745 16.1129 29.7074 16.1315 29.8374 16.1315C30.3389 16.0686 30.8397 16.0143 31.3468 16.0215C31.4797 16.0236 31.582 15.9336 31.6892 15.8542C31.9236 15.682 32.3591 15.7763 32.4962 16.0143C32.6524 16.2859 32.5636 16.5832 32.2674 16.7539H32.2681ZM31.4598 21.4919C31.4591 21.8577 31.339 22.0364 31.0307 22.0643C30.753 22.0893 30.5413 22.2272 30.3453 22.4337C29.8082 22.999 29.2506 23.5449 28.6994 24.0959C28.5751 24.2203 28.4771 24.3317 28.4536 24.5361C28.406 24.942 28.1304 25.1793 27.7738 25.2057C27.5131 25.225 27.2084 24.972 27.0997 24.6462C26.9719 24.2631 27.3505 23.7765 27.815 23.7865C28.0992 23.7922 28.2696 23.6736 28.4515 23.4892C28.8926 23.0433 29.3501 22.6145 29.799 22.1765C30.0448 21.9363 30.3268 21.747 30.3779 21.3368C30.4255 20.9587 30.7842 20.9559 31.0812 20.9952C31.4015 21.0374 31.4711 21.2839 31.4591 21.4926L31.4598 21.4919ZM38.5127 19.656C38.2741 19.6081 38.0176 19.6174 37.7719 19.6374C37.0892 19.6924 36.6659 19.3201 36.4513 18.7413C36.2652 18.2389 35.9733 17.9395 35.481 17.7487C35.2842 17.6722 35.0271 17.5615 34.8758 17.2477C35.3652 17.3864 35.8049 17.3621 36.2404 17.575C36.7269 17.813 37.3002 17.8945 37.845 17.9817C38.2655 18.0488 38.4772 18.2575 38.5234 18.6605C38.5539 18.9307 38.6541 19.1779 38.7337 19.433C38.7926 19.6231 38.7514 19.7039 38.5134 19.656H38.5127Z" fill="white" fill-opacity="0.6"/>
<path d="M12.1924 18.1984C13.5165 18.1956 14.8405 18.1677 16.1639 18.1841C17.1506 18.1963 18.0491 17.959 18.9264 17.4988C20.2128 16.8235 20.8287 15.683 21.1476 14.3581C21.3984 13.3155 21.3124 12.2214 21.4545 11.1595C21.5561 10.3998 21.62 9.63232 21.9169 8.90699C22.01 8.68045 22.1414 8.42105 22.0441 8.06445C20.7001 9.548 19.3661 10.9536 17.4404 11.6783C17.6215 11.8055 17.7416 11.7647 17.8524 11.7662C18.29 11.7719 18.7275 11.7633 19.1644 11.7697C19.4414 11.774 19.7248 11.8669 19.7973 12.1378C19.8697 12.4079 19.8982 12.718 19.6588 12.9746C19.435 13.2147 19.1587 13.2576 18.8653 13.2604C18.2033 13.2661 17.5413 13.264 16.8792 13.259C16.2371 13.254 15.7519 13.9815 16.1042 14.5553C16.3479 14.9526 16.9211 15.1649 17.3516 14.9848C17.6002 14.8805 17.8339 14.814 18.1166 14.9076C18.4171 15.0069 18.5734 15.1885 18.6061 15.4843C18.6572 15.9438 18.4931 16.249 18.1571 16.3983C17.8389 16.5398 17.5547 16.5126 17.3544 16.2154C17.2223 16.0196 17.0639 15.9788 16.8473 15.9795C15.3697 15.9853 13.8922 15.9795 12.414 15.9795C12.2016 15.9795 11.9892 15.9788 11.7825 16.046C11.384 16.1753 10.9038 16.7642 10.9394 17.0886C11.0068 17.7139 11.5474 18.1999 12.191 18.1991L12.1924 18.1984Z" fill="white" fill-opacity="0.6"/>
<path d="M32.5779 7.38036C32.9501 7.90203 33.4452 8.29078 34.0149 8.55376C34.8389 8.93322 35.7581 9.03184 36.597 9.37557C36.8094 9.46275 36.8826 9.40273 36.928 9.18048C37.0758 8.46015 37.1603 7.73696 37.1042 7.00233C37.0786 6.66217 37.026 6.32416 36.9856 5.98543C36.9969 5.984 37.0083 5.98186 37.0197 5.98043C36.9039 5.25438 36.808 4.52404 36.6659 3.80299C36.5224 3.0748 36.4223 2.33732 36.2198 1.62056C36.1829 1.4905 36.2219 1.27683 36.1104 1.23895C35.9577 1.18821 35.8604 1.37687 35.7645 1.49193C34.5882 2.89829 33.414 4.3068 32.2377 5.71388C31.8903 6.12978 31.8669 6.22697 32.1126 6.67075C32.2497 6.91801 32.4131 7.15097 32.5779 7.38108V7.38036Z" fill="white" fill-opacity="0.6"/>
<path d="M37.6241 29.4216C36.9692 29.2565 36.3086 29.2222 35.648 29.3551C34.4283 29.601 33.4402 30.1977 32.7832 31.2982C32.4017 31.9363 32.2476 32.6445 32.0906 33.3555C32.0821 35.2714 32.0757 37.188 32.0643 39.1039C32.0615 39.6585 31.8718 40.1623 31.5777 40.6168C31.0272 41.4664 30.2039 42.0639 29.5348 42.8063C29.0198 43.378 28.4572 43.9076 27.9053 44.4442C26.9648 45.3597 26.0797 46.3294 25.1144 47.222C24.5937 47.7029 24.4701 47.8401 24.7769 48.5804C25.0476 49.2329 25.9021 49.458 26.4349 49.0149C27.4343 48.1846 28.2938 47.2048 29.2421 46.3194C30.0541 45.5612 30.7544 44.6879 31.5863 43.9462C31.6424 43.8961 31.685 43.8411 31.761 43.8611C31.8519 43.8847 31.8874 43.9597 31.8896 44.0505C31.891 44.1455 31.8924 44.2406 31.8924 44.3363C31.8924 45.5383 31.8896 46.741 31.891 47.943C31.891 48.2746 32.205 48.7269 32.4756 48.7991C32.9821 48.9342 33.7201 48.5276 33.8508 48.0259C33.9368 47.6958 33.99 47.3577 33.99 47.014C33.99 44.9195 33.9929 42.8242 33.9858 40.7297C33.9844 40.2673 33.9545 39.8135 34.2039 39.3862C34.2863 39.2454 34.2969 39.051 34.2919 38.8688C34.2749 38.2385 34.2649 37.6075 34.2649 36.9772C34.2649 36.5206 34.6698 36.2762 35.0641 36.482C35.3184 36.6142 35.3326 36.8436 35.3319 37.0916C35.329 39.9836 35.3283 42.8764 35.3297 45.7684C35.3297 45.9478 35.3013 46.135 35.3944 46.3451C35.4945 46.2051 35.5769 46.1057 35.6409 45.9964C36.3171 44.8473 36.7881 43.6096 37.1489 42.3304C37.4956 41.102 37.568 39.8457 37.4025 38.5815C37.3095 37.8691 37.0758 37.1845 36.9195 36.4849C36.6907 35.4601 36.678 34.4175 36.7142 33.3727C36.7042 32.9354 36.8207 32.5144 36.9003 32.0914C37.0495 31.2932 37.4693 30.6043 37.8486 29.9018C38.029 29.5674 37.9971 29.5166 37.6227 29.4216H37.6241Z" fill="white" fill-opacity="0.6"/>
<path d="M23.9523 46.1082C23.612 46.4691 23.2682 46.8264 22.923 47.1823C22.8157 47.2931 22.7163 47.3896 22.5302 47.2809C21.5897 46.7328 20.066 47.5461 20.093 48.8274C20.0682 49.0725 20.1363 49.334 20.2415 49.5906C20.4596 50.123 20.8382 50.4774 21.4043 50.561C22.1182 50.6668 22.7774 50.4324 23.1951 49.8707C23.6035 49.3212 23.6767 48.643 23.3116 47.9948C23.2107 47.8162 23.2277 47.6875 23.3528 47.5182C23.6341 47.1373 23.9558 46.7957 24.2869 46.4613C24.4389 46.3076 24.5262 46.129 24.3572 45.971C24.1945 45.8188 24.0688 45.9853 23.953 46.1075L23.9523 46.1082Z" fill="white" fill-opacity="0.6"/>
<path d="M8.60873 22.8897C8.48868 23.0269 8.40983 23.0405 8.27558 22.9512C8.00707 22.7725 7.7208 22.6525 7.40612 22.7025C7.15466 22.6939 6.91954 22.6811 6.71496 22.8311C6.22554 23.1899 5.91867 23.6365 5.9755 24.2832C6.03162 24.9257 6.57574 25.531 7.21859 25.636C7.84014 25.7382 8.45742 25.3766 8.76074 24.8071C8.93761 24.4755 8.89144 24.1439 8.88789 23.8087C8.88576 23.6165 8.93051 23.4836 9.07755 23.3507C9.41993 23.0419 9.74669 22.7147 10.0685 22.3845C10.2297 22.2187 10.2439 21.9958 10.082 21.845C9.93351 21.7078 9.73248 21.7406 9.57621 21.8993C9.25229 22.228 8.91346 22.5424 8.60944 22.889L8.60873 22.8897Z" fill="white" fill-opacity="0.6"/>
<path d="M1.63128 27.5794C2.43681 27.5744 3.123 26.9734 3.15709 25.9001C3.17911 25.2026 2.54265 24.3436 1.60997 24.4187C0.705001 24.4201 0.0834539 25.0625 0.0820332 25.9922C0.0806126 26.9098 0.841386 27.5837 1.63128 27.5794Z" fill="white" fill-opacity="0.6"/>
<path d="M20.6234 45.0059C21.2997 45.0216 22.3552 44.2441 22.2508 43.4159C22.2707 42.5519 21.5739 41.9152 20.6227 41.9102C19.6083 41.9052 19.0791 42.6984 19.0941 43.4809C19.1104 44.3556 19.8044 44.9859 20.6234 45.0059Z" fill="white" fill-opacity="0.6"/>
<path d="M4.3199 41.9532C4.11603 41.9575 3.96544 42.0482 3.86386 42.2312C3.61666 42.6756 3.3375 42.8722 3.02495 42.7657C2.81469 42.6935 2.6094 42.7157 2.3963 42.6885C2.20735 42.7214 2.00632 42.6664 1.81382 42.7564C1.30238 42.9951 0.967806 43.3495 0.906717 43.9484C0.840655 44.5915 1.09638 45.0482 1.61848 45.3805C2.19527 45.7478 3.17696 45.6306 3.53568 45.0918C3.82763 44.6537 3.91713 44.1342 3.73174 43.6118C3.64934 43.381 3.6401 43.1823 3.86315 43.0451C4.11106 42.8929 4.23466 42.6228 4.45415 42.4484C4.56212 42.3626 4.56283 42.2747 4.51737 42.1697C4.47759 42.0761 4.4641 41.9503 4.32061 41.9532H4.3199Z" fill="white" fill-opacity="0.6"/>
<path d="M7.05989 13.1256C7.96486 13.0591 8.63897 12.6425 8.61127 11.607C8.61127 10.7788 8.09769 10.1992 7.36462 10.1992C6.33179 10.1992 5.69888 10.723 5.69533 11.5806C5.69177 12.3431 6.40495 13.1735 7.05989 13.1256Z" fill="white" fill-opacity="0.6"/>
<path d="M7.36435 42.5682C8.08677 42.5239 8.70192 41.8122 8.69269 40.9582C8.78006 40.0799 7.97098 39.5583 7.32883 39.5547C6.70871 39.5511 5.79663 40.1543 5.8563 41.0661C5.90531 41.8086 6.51905 42.6204 7.36435 42.569V42.5682Z" fill="white" fill-opacity="0.6"/>
<path d="M1.43956 39.7175C2.10231 39.4917 2.48589 38.9971 2.34951 38.4319C2.26995 38.1032 2.34312 37.9102 2.58818 37.7208C2.73664 37.6058 2.85385 37.4507 2.99165 37.3214C3.25874 37.0712 3.45409 36.7332 3.91439 36.7518C4.11328 36.7597 4.28447 36.5632 4.28589 36.3037C4.28731 36.0529 4.32212 35.7907 4.03798 35.6585C3.62954 35.4684 3.24027 35.6742 3.15503 36.1337C3.13017 36.2666 3.10744 36.3788 3.0016 36.4753C2.6784 36.7704 2.363 37.0748 2.04548 37.3771C1.96735 37.4514 1.89276 37.54 1.77129 37.4736C1.60365 37.3814 1.42323 37.44 1.27121 37.4214C0.267504 37.42 -0.294375 38.2982 0.158822 39.1272C0.418806 39.6024 0.997022 39.869 1.43885 39.7182L1.43956 39.7175Z" fill="white" fill-opacity="0.6"/>
<path d="M12.8218 47.5903C12.6563 47.466 12.5582 47.5996 12.4609 47.6954C12.1228 48.0277 11.7762 48.3536 11.4586 48.7059C11.1418 49.0567 10.8534 49.4319 10.3889 49.2254C9.58121 49.1882 9.05769 49.6863 9.02289 50.3866C8.9895 51.062 9.55706 51.6594 10.2127 51.6501C10.9067 51.6401 11.4416 51.1827 11.4011 50.4259C11.3912 50.2387 11.3933 50.0536 11.3215 49.8678C11.2548 49.6956 11.3215 49.5227 11.4594 49.3883C11.6966 49.1575 11.9523 48.941 12.164 48.688C12.3757 48.435 12.6897 48.2828 12.8331 47.967C12.8928 47.8362 12.9837 47.7118 12.8218 47.5911V47.5903Z" fill="white" fill-opacity="0.6"/>
<path d="M2.92701 30.2574C3.16853 30.5089 3.48818 30.5318 3.74888 30.2852C4.58211 29.4977 5.40468 28.6988 6.23506 27.9084C6.43467 27.7183 6.46095 27.4961 6.35866 27.2617C6.24572 27.0044 6.02623 26.8808 5.74564 26.8486C5.57587 26.9065 5.40184 26.9394 5.25764 27.0873C4.72204 27.6361 4.17224 28.1707 3.62599 28.7081C3.38945 28.9403 3.14083 29.1597 2.91068 29.3984C2.6308 29.6885 2.64217 29.9608 2.92773 30.2581L2.92701 30.2574Z" fill="white" fill-opacity="0.6"/>
<path d="M18.9632 46.461C18.9553 45.7193 18.4176 45.1626 17.6604 45.2054C16.9053 45.2476 16.4223 45.5878 16.3988 46.5032C16.3811 47.1985 16.9721 47.8109 17.6405 47.7724C18.2933 47.7345 19.0342 47.2978 18.9632 46.4617V46.461Z" fill="white" fill-opacity="0.6"/>
<path d="M7.26293 31.643C7.26009 30.9862 6.7799 30.556 6.05251 30.5596C5.23207 30.5639 4.69079 31.0605 4.69932 31.8023C4.70713 32.5226 5.2612 33.0729 5.97793 33.0729C6.79411 33.0729 7.26719 32.5462 7.26293 31.643Z" fill="white" fill-opacity="0.6"/>
<path d="M6.75858 16.8559C6.73798 17.4233 7.13293 17.9728 7.68486 18.1258C7.90152 18.1858 8.10468 18.0922 8.29078 17.9957C8.4428 17.9171 8.30854 17.7706 8.31849 17.6563C8.3334 17.484 8.37034 17.3354 8.48968 17.211C8.54935 17.1489 8.62748 17.0803 8.70207 17.131C8.75961 17.1703 8.82638 17.2968 8.80436 17.3375C8.70775 17.514 8.7937 17.717 8.69639 17.9092C8.99899 17.9149 9.29449 18.0021 9.43656 17.6655C9.50404 17.5055 9.54382 17.334 9.58999 17.166C9.63261 17.0117 9.19647 16.137 9.0473 16.1012C8.93506 16.0748 8.81288 16.092 8.69497 16.0898C8.54438 16.087 8.40515 16.087 8.25953 16.0005C7.57547 15.5946 6.78771 16.0505 6.75858 16.8566V16.8559ZM8.61896 16.1949C8.82993 16.2184 8.87752 16.3964 8.88463 16.5743C8.89031 16.7344 8.79228 16.8502 8.61967 16.8344C8.38171 16.813 8.45629 16.6136 8.45345 16.4757C8.45132 16.3664 8.37389 16.1934 8.61896 16.1941V16.1949Z" fill="white" fill-opacity="0.6"/>
<path d="M9.45462 45.3631C9.46244 44.7271 8.86646 44.1389 8.21579 44.1396C7.60774 44.1404 7.03663 44.7485 7.04302 45.3874C7.05013 46.042 7.55873 46.5165 8.24776 46.5115C8.84089 46.5072 9.44681 45.9298 9.45391 45.3624L9.45462 45.3631Z" fill="white" fill-opacity="0.6"/>
<path d="M1.42699 32.2058C0.911997 32.2023 0.517759 32.5581 0.515628 33.0284C0.514208 33.3707 0.988714 33.9138 1.29487 33.9202C1.85817 33.9324 2.30923 33.5429 2.30142 33.0148C2.29503 32.546 1.92139 32.1422 1.42699 32.2058Z" fill="white" fill-opacity="0.6"/>
<path d="M9.53296 20.5318C9.53438 19.9436 9.28221 19.7014 8.66635 19.6992C8.18616 19.6978 7.82318 20.0308 7.82033 20.4753C7.81678 20.9627 8.24725 21.42 8.70968 21.4207C9.11741 21.4207 9.53225 20.9734 9.53296 20.5318Z" fill="white" fill-opacity="0.6"/>
<path d="M34.4918 50.2586C33.7864 50.21 33.606 50.5444 33.5684 51.0047C33.5343 51.4241 33.9541 51.8651 34.3597 51.8686C34.8576 51.8729 35.2838 51.5285 35.2874 51.1183C35.2931 50.5416 35.038 50.2665 34.4918 50.2579V50.2586Z" fill="white" fill-opacity="0.6"/>
<path d="M19.7855 51.3574C19.3273 51.3539 18.9587 51.7176 18.9551 52.1735C18.9516 52.6395 19.3096 53.0025 19.7713 53.0003C20.2053 52.9982 20.6954 52.5637 20.6493 52.1721C20.596 51.7198 20.3374 51.3625 19.7862 51.3582L19.7855 51.3574Z" fill="white" fill-opacity="0.6"/>
<path d="M11.5944 21.1982C12.1911 21.2074 12.5761 20.8902 12.5754 20.3899C12.574 19.9104 12.2806 19.6367 11.7663 19.6367C11.3032 19.6367 10.9438 19.9461 10.9395 20.3499C10.9352 20.7151 11.3053 21.1939 11.5944 21.1982Z" fill="white" fill-opacity="0.6"/>
<path d="M35.6544 47.5772C35.241 47.6108 34.9341 47.7487 34.9277 48.2468C34.9256 48.607 35.2005 48.9421 35.4932 48.9336C35.9101 48.9221 36.2682 48.6034 36.2774 48.2361C36.2838 47.9753 35.9158 47.5565 35.6544 47.5779V47.5772Z" fill="white" fill-opacity="0.6"/>
<path d="M38.8476 44.5568C38.3802 44.549 38.1124 44.7684 38.1075 45.1628C38.1039 45.4816 38.4072 45.7981 38.7269 45.8096C39.1651 45.8253 39.4507 45.5752 39.4585 45.1693C39.4656 44.7769 39.2532 44.564 38.8476 44.5568Z" fill="white" fill-opacity="0.6"/>
<path d="M9.88282 23.4205C9.88069 23.7049 10.1712 23.9871 10.4717 23.9929C10.8823 24.0007 11.0179 23.8671 11.025 23.4455C11.0322 23.0481 10.9213 22.9274 10.5434 22.9202C10.113 22.9117 9.88496 23.0846 9.88282 23.4205Z" fill="white" fill-opacity="0.6"/>
<path d="M4.56197 39.2783C4.23024 39.2862 4.04982 39.4784 4.05479 39.8193C4.05905 40.0915 4.30128 40.3602 4.54279 40.361C4.85676 40.361 5.13024 40.0937 5.13237 39.7835C5.1345 39.4448 4.93703 39.2697 4.56197 39.279V39.2783Z" fill="white" fill-opacity="0.6"/>
<path d="M4.43954 22.8245C4.59794 22.8067 4.87498 22.8117 4.84088 22.5215C4.85864 22.2536 4.6981 22.1428 4.49921 22.1406C4.29463 22.1385 4.14546 22.2814 4.14262 22.5001C4.13978 22.6852 4.29321 22.8417 4.44025 22.8245H4.43954Z" fill="white" fill-opacity="0.6"/>
<path d="M5.89943 35.1782C5.87883 35.2897 5.96692 35.4055 6.14024 35.4119C6.3228 35.4183 6.3434 35.2925 6.39951 35.1739C6.32208 35.1053 6.38175 34.9338 6.20062 34.9317C6.02232 34.9295 5.92145 35.056 5.89943 35.1775V35.1782Z" fill="white" fill-opacity="0.6"/>
<path d="M17.8109 28.0598C17.45 28.0498 17.0558 28.4342 17.0508 28.8022C17.0459 29.1195 17.4245 29.4926 17.7576 29.4997C18.2179 29.5097 18.5326 29.2367 18.5411 28.8187C18.5511 28.3463 18.2882 28.0733 17.8116 28.0598H17.8109Z" fill="white" fill-opacity="0.6"/>
</svg>
