<svg aria-hidden="true" xmlns="http://www.w3.org/2000/svg" xmlns:xlink="http://www.w3.org/1999/xlink"><symbol viewBox="0 0 24 24" fill="none" id="arrow-left" xmlns="http://www.w3.org/2000/svg">
<path d="M6.08 11.6202C6.12759 11.4974 6.19896 11.3853 6.29 11.2902L11.29 6.29019C11.3832 6.19695 11.4939 6.12299 11.6158 6.07253C11.7376 6.02207 11.8681 5.99609 12 5.99609C12.2663 5.99609 12.5217 6.10188 12.71 6.29019C12.8032 6.38342 12.8772 6.49411 12.9277 6.61594C12.9781 6.73776 13.0041 6.86833 13.0041 7.00019C13.0041 7.26649 12.8983 7.52188 12.71 7.71019L9.41 11.0002H17C17.2652 11.0002 17.5196 11.1055 17.7071 11.2931C17.8946 11.4806 18 11.735 18 12.0002C18 12.2654 17.8946 12.5198 17.7071 12.7073C17.5196 12.8948 17.2652 13.0002 17 13.0002H9.41L12.71 16.2902C12.8037 16.3831 12.8781 16.4937 12.9289 16.6156C12.9797 16.7375 13.0058 16.8682 13.0058 17.0002C13.0058 17.1322 12.9797 17.2629 12.9289 17.3848C12.8781 17.5066 12.8037 17.6172 12.71 17.7102C12.617 17.8039 12.5064 17.8783 12.3846 17.9291C12.2627 17.9798 12.132 18.006 12 18.006C11.868 18.006 11.7373 17.9798 11.6154 17.9291C11.4936 17.8783 11.383 17.8039 11.29 17.7102L6.29 12.7102C6.19896 12.6151 6.12759 12.5029 6.08 12.3802C5.97998 12.1367 5.97998 11.8636 6.08 11.6202Z" fill="currentColor"/>
</symbol><symbol viewBox="0 0 24 24" fill="none" id="arrow-right" xmlns="http://www.w3.org/2000/svg">
<path d="M17.92 11.6202C17.8724 11.4974 17.801 11.3853 17.71 11.2902L12.71 6.29019C12.6168 6.19695 12.5061 6.12299 12.3842 6.07253C12.2624 6.02207 12.1319 5.99609 12 5.99609C11.7337 5.99609 11.4783 6.10188 11.29 6.29019C11.1968 6.38342 11.1228 6.49411 11.0723 6.61594C11.0219 6.73776 10.9959 6.86833 10.9959 7.00019C10.9959 7.26649 11.1017 7.52188 11.29 7.71019L14.59 11.0002H7C6.73478 11.0002 6.48043 11.1055 6.29289 11.2931C6.10536 11.4806 6 11.735 6 12.0002C6 12.2654 6.10536 12.5198 6.29289 12.7073C6.48043 12.8948 6.73478 13.0002 7 13.0002H14.59L11.29 16.2902C11.1963 16.3831 11.1219 16.4937 11.0711 16.6156C11.0203 16.7375 10.9942 16.8682 10.9942 17.0002C10.9942 17.1322 11.0203 17.2629 11.0711 17.3848C11.1219 17.5066 11.1963 17.6172 11.29 17.7102C11.383 17.8039 11.4936 17.8783 11.6154 17.9291C11.7373 17.9798 11.868 18.006 12 18.006C12.132 18.006 12.2627 17.9798 12.3846 17.9291C12.5064 17.8783 12.617 17.8039 12.71 17.7102L17.71 12.7102C17.801 12.6151 17.8724 12.5029 17.92 12.3802C18.02 12.1367 18.02 11.8636 17.92 11.6202Z" fill="currentColor"/>
</symbol><symbol viewBox="0 0 24 24" fill="none" id="butterfly" xmlns="http://www.w3.org/2000/svg">
<path d="M5.20237 2.37085C7.95375 4.41875 10.9136 8.5705 12 10.7985V16.6832C12 16.5579 11.9513 16.6995 11.8463 17.0044C11.2793 18.6555 9.0645 25.0993 4.00012 19.9479C1.3335 17.2356 2.568 14.5234 7.422 13.7045C4.64512 14.1729 1.52325 13.3988 0.66675 10.3642C0.42 9.49125 0 4.11418 0 3.38794C0 -0.249882 3.21712 0.893562 5.20237 2.37085ZM18.7976 2.37085C16.0462 4.41875 13.0864 8.5705 12 10.7985V16.6832C12 16.5579 12.0487 16.6995 12.1537 17.0044C12.7207 18.6555 14.9355 25.0993 19.9999 19.9479C22.6665 17.2356 21.432 14.5234 16.578 13.7045C19.3549 14.1729 22.4767 13.3988 23.3333 10.3642C23.58 9.49125 24 4.11418 24 3.38794C24 -0.249882 20.7832 0.893562 18.7976 2.37085Z" fill="currentColor"/>
</symbol><symbol viewBox="0 0 24 24" fill="none" id="linkedin" xmlns="http://www.w3.org/2000/svg">
<g clip-path="url(#dclip0_357_1268)">
<path d="M12 0C17.6569 0 20.4849 0.000452518 22.2422 1.75781C23.9996 3.51517 24 6.34317 24 12C24 17.6569 23.9996 20.4849 22.2422 22.2422C20.4849 23.9996 17.6569 24 12 24C6.34317 24 3.51517 23.9996 1.75781 22.2422C0.000452518 20.4849 0 17.6569 0 12C0 6.34315 0.000452518 3.51517 1.75781 1.75781C3.51517 0.000452518 6.34315 0 12 0ZM5.08984 9.74023V18.7402H8.08984V9.74023H5.08984ZM15.46 9.5C14.9146 9.47987 14.374 9.60972 13.8965 9.87402C13.4192 10.1383 13.0225 10.5273 12.75 11V9.73047H9.75V18.7305H12.75V13.5449C12.7581 13.3601 12.791 13.1761 12.8496 13C12.9641 12.6828 13.174 12.4087 13.4492 12.2139C13.7244 12.0191 14.0525 11.9127 14.3896 11.9102C15.4796 11.9102 15.9101 12.7003 15.9102 13.9102V18.7402H18.9102V13.5605C18.9102 10.7905 17.46 9.5 15.46 9.5ZM6.58984 5.36035C6.17626 5.36041 5.7798 5.52497 5.4873 5.81738C5.19484 6.10992 5.03027 6.50723 5.03027 6.9209C5.03047 7.33436 5.19493 7.73106 5.4873 8.02344C5.77978 8.31577 6.17631 8.48041 6.58984 8.48047C6.8095 8.50537 7.0325 8.484 7.24316 8.41699C7.45365 8.35002 7.6477 8.23886 7.8125 8.0918C7.97735 7.94459 8.10985 7.76322 8.2002 7.56152C8.2903 7.36008 8.33681 7.14157 8.33691 6.9209C8.33691 6.70004 8.29035 6.48092 8.2002 6.2793C8.10988 6.07756 7.97735 5.89627 7.8125 5.74902C7.64776 5.60199 7.45356 5.49181 7.24316 5.4248C7.03247 5.35778 6.80954 5.33544 6.58984 5.36035Z" fill="currentColor"/>
</g>
<defs>
<clipPath id="dclip0_357_1268">
<rect width="24" height="24" fill="currentColor"/>
</clipPath>
</defs>
</symbol></svg>