<svg width="362" height="415" viewBox="0 0 362 415" fill="none" xmlns="http://www.w3.org/2000/svg">
<path d="M224.537 310.642C224.537 308.122 225.68 305.976 227.595 304.801C229.51 303.627 231.932 303.589 234.138 304.739H234.137C235.675 305.537 236.574 306.709 237.027 308.054C237.439 309.278 237.453 310.582 237.451 311.597C237.427 335.354 237.421 359.117 237.432 382.874C242.377 374.036 245.93 364.563 248.707 354.736C251.436 345.084 252.079 335.209 250.889 325.245L250.768 324.28C250.395 321.434 249.738 318.616 248.994 315.738C248.261 312.898 247.426 309.931 246.764 306.973C244.798 298.181 244.697 289.29 245 280.54C244.929 276.647 245.971 272.81 246.589 269.532C247.908 262.489 251.629 256.404 254.719 250.693L254.964 250.227C255.033 250.093 255.09 249.973 255.14 249.868C254.881 249.786 254.543 249.691 254.1 249.579V249.576C248.884 248.265 243.673 248.005 238.487 249.046C228.751 251.005 221.026 255.702 215.873 264.315H215.872C212.915 269.253 211.676 274.761 210.369 280.668C210.299 296.569 210.245 312.482 210.151 328.387C210.124 333.482 208.375 338.052 205.764 342.079L205.763 342.079C203.338 345.815 200.337 348.958 197.316 351.89C194.246 354.869 191.238 357.557 188.501 360.587C184.141 365.418 179.374 369.899 174.796 374.341L174.795 374.34C167.091 381.825 159.491 390.11 151.442 397.538L151.441 397.538C150.337 398.556 149.541 399.305 148.957 399.975C148.389 400.628 148.121 401.096 147.993 401.51C147.743 402.32 147.83 403.539 149.114 406.628H149.113C150.882 410.885 156.474 412.273 159.84 409.479H159.841C163.941 406.079 167.77 402.361 171.591 398.538C175.393 394.735 179.213 390.802 183.208 387.079L184.449 385.903C187.32 383.135 190.049 380.202 192.845 377.226C196.022 373.845 199.278 370.417 202.827 367.258L203.15 366.96C203.284 366.839 203.489 366.66 203.742 366.496C204.335 366.115 205.152 365.856 206.117 366.107C206.98 366.33 207.68 366.843 208.13 367.567C208.497 368.157 208.641 368.789 208.68 369.343L208.691 369.576V369.592C208.703 370.382 208.715 371.19 208.715 372.006C208.715 382.037 208.692 392.055 208.703 402.078V402.08C208.704 402.914 209.138 404.154 209.945 405.327C210.78 406.541 211.654 407.166 212.102 407.286C213.556 407.673 215.613 407.31 217.536 406.239C219.466 405.163 220.782 403.643 221.142 402.266C221.827 399.639 222.241 396.993 222.241 394.333C222.241 376.865 222.264 359.399 222.204 341.939V341.938C222.193 338.289 221.881 333.858 224.3 329.72L224.301 329.717C224.673 329.083 224.805 327.991 224.763 326.47V326.469C224.62 321.199 224.537 315.919 224.537 310.642ZM184.668 0.810932C185.18 0.508636 186.099 0.0961823 187.156 0.441791C188.19 0.780134 188.694 1.63354 188.936 2.15078C189.198 2.71283 189.384 3.39085 189.541 4.0707L189.542 4.07265C192.181 15.5474 194.775 27.1893 195.922 39.0619V39.0629C196.576 45.8356 197.912 52.4525 199.224 59.223V59.224C200.295 64.758 203.719 69.1021 207.864 73.5541L208.324 74.0385C213.117 78.9803 219.046 82.038 225.618 84.7475C228.476 85.924 231.477 86.5977 234.634 87.2025C237.736 87.7967 241.068 88.3363 244.287 89.2494L245.096 89.4828C253.168 91.8558 260.893 95.4423 267.006 102.009L267.613 102.675V102.676C273.129 108.897 279.181 114.611 285.307 120.409C291.633 126.395 294.644 133.995 295.121 142.546L295.159 143.377V143.378C295.331 148.165 295.555 152.878 296.21 157.545H296.209C296.273 157.996 296.375 158.118 296.427 158.181C296.477 158.241 296.557 158.323 296.714 158.45C296.885 158.588 297.067 158.72 297.355 158.934H297.356C301.612 162.093 305.738 165.194 310.154 167.819C319.142 173.162 327.639 179.719 336.122 185.341C343.516 190.236 350.787 195.324 358.04 200.352L361.506 202.754L359.971 203.194C360.109 204.204 359.759 205.186 359.114 206.032C358.717 206.551 358.371 207.13 357.948 207.829C357.546 208.494 357.073 209.273 356.494 209.999C352.913 214.507 349.317 219.172 345.447 223.571H345.446C336.735 233.462 326.081 240.473 313.292 243.804L312.048 244.115C308.075 245.066 303.975 245.23 300.05 245.232L298.379 245.224C290.992 245.163 283.895 243.819 276.819 242.302C265.073 239.785 254.172 236.14 242.542 237.137H242.541C233.827 237.881 225.768 240.034 218.778 245.089H218.777C212.397 249.7 207.715 255.779 204.23 262.968C201.525 268.559 200.258 274.538 199.659 280.833C198.753 295.302 199.248 309.76 199.314 324.404C199.345 331.181 198 337.782 192.26 342.552C188.603 345.591 184.179 349.417 178.123 349.734L177.532 349.753C176.628 349.766 176.037 350.235 174.742 351.33H174.742C174.264 351.734 173.805 352.197 173.302 352.726C172.821 353.232 172.267 353.833 171.698 354.385C170.803 355.253 170.433 355.821 170.276 356.36C170.121 356.891 170.092 357.683 170.507 359.147C171.655 363.177 171.872 366.883 170.507 370.085C169.207 373.134 166.631 375.367 162.963 376.971L162.215 377.284C159.042 378.549 155.526 377.956 152.565 376.419C149.776 374.971 147.276 372.592 145.707 369.682L145.407 369.093C144.036 366.261 143.863 363.584 144.515 361.11C145.111 358.848 146.366 356.874 147.776 355.165L148.06 354.827C151.383 350.93 156.427 349.095 161.645 350.785H161.644C162.846 351.173 163.298 350.985 163.543 350.84C163.869 350.648 164.195 350.305 164.676 349.66L165.214 348.907C168.472 344.212 172.071 339.098 177.427 335.745L177.951 335.425C181.342 333.418 184.378 331.361 186.897 328.638L187.067 328.448C188.773 326.481 188.92 324.319 187.937 322.719L187.936 322.718C186.955 321.119 185.334 320.644 183.66 321.478L183.656 321.48C183.128 321.741 182.617 322.077 182.046 322.481L181.451 322.907C178.938 324.721 175.997 326.808 171.758 326.656V326.655C170.495 326.612 169.362 327.048 168.193 327.85C166.971 328.688 165.87 329.807 164.591 331.053L164.589 331.055C159.828 335.686 155.099 340.276 150.616 345.079L150.615 345.078C143.171 353.058 129.545 350.731 124.153 340.268V340.267C123.278 338.574 123.012 336.849 123.387 335.167C123.753 333.522 124.688 332.112 125.868 330.919L136.599 320.088C140.176 316.479 143.753 312.87 147.328 309.259L153.058 303.466C154.964 301.534 156.864 299.599 158.753 297.658C161.15 295.191 163.357 292.769 165.786 290.232C166.844 289.128 167.241 288.223 167.149 287.423V287.42C166.765 284.044 167.888 281.318 169.897 279.009C175.042 271.633 181.917 265.623 187.724 259.482L187.727 259.48C189.342 257.777 190.493 256.205 190.859 254.483C191.559 251.17 193.707 249.144 195.396 247.483L195.397 247.482C202.142 240.861 208.994 234.882 215.204 228.043L215.473 227.759C216.833 226.374 218.443 225.569 220.467 225.318C222.255 225.095 223.252 224.158 223.413 223.099C223.623 221.695 223.824 220.636 223.719 219.67C223.634 218.891 223.366 218.322 222.559 217.849C220.862 216.856 218.731 216.911 217.229 217.758L217.228 217.757C215.896 218.511 215.157 220.1 215.638 221.551L215.689 221.692L215.69 221.694C216.203 223.018 216.289 224.271 215.804 225.471C215.381 226.519 214.586 227.305 214.049 227.844L214.048 227.843C207.432 234.497 200.671 241.068 193.452 247.163L192.002 248.375C189.931 250.091 188.702 251.861 188.407 254.204L188.36 254.68C188.206 256.86 187.07 258.571 185.688 259.851L185.684 259.855C182.868 262.448 180.291 265.295 177.708 268.243C175.145 271.167 172.552 274.22 169.789 277.097L169.787 277.099C169.447 277.453 169.12 277.868 168.727 278.378C168.356 278.861 167.914 279.444 167.424 279.986C166.568 280.932 165.446 281.882 163.867 282.339C160.792 286.777 156.675 290.251 153.084 293.558C148.972 297.35 145.089 301.309 141.034 305.284L141.034 305.283C131.22 314.909 121.451 324.582 111.661 334.239L111.66 334.24C103.853 341.936 96.0948 349.837 88.0823 357.422C83.8831 361.4 79.9194 365.613 75.8851 369.865C71.8652 374.101 67.7812 378.37 63.4056 382.377L63.4046 382.378C62.779 382.95 62.1718 383.555 61.5384 384.193C60.9147 384.82 60.2574 385.487 59.5774 386.129C58.2114 387.42 56.6586 388.705 54.7366 389.66C50.6393 391.695 46.408 391.184 42.9495 389.144L42.9485 389.143C38.9909 386.805 38.2295 382.38 38.6038 378.641C39.0154 374.521 42.3027 372.129 44.1253 370.57L44.1263 370.569C52.3421 363.551 59.4748 355.681 67.4144 348.018C77.7722 338.029 88.02 327.918 98.2503 317.784C105.811 310.298 113.366 302.405 121.045 294.926C126.612 289.5 132.487 284.315 138.145 279.108C138.426 278.404 138.844 277.867 139.233 277.454C139.477 277.194 139.729 276.963 139.931 276.781C140.15 276.582 140.308 276.443 140.454 276.297L140.455 276.295C155.328 261.506 170.134 246.599 185.17 231.937C191.657 225.61 194.895 218.392 194.561 209.533L194.517 208.669C194.431 207.3 194.054 206.383 193.603 205.839C193.192 205.344 192.616 205.025 191.735 205.001H191.733C191.342 204.99 190.568 205.27 189.758 206.093C188.977 206.887 188.506 207.85 188.44 208.615V208.616C188.386 209.239 188.374 209.791 188.433 210.279L188.488 210.794C188.955 216.085 186.471 220.078 183.123 223.302C164.08 241.649 145.579 260.543 126.985 279.404L126.986 279.405C126.785 279.61 126.593 279.835 126.331 280.135C126.088 280.414 125.789 280.754 125.45 281.078C124.958 281.548 124.333 282.028 123.532 282.347C122.735 283.809 121.611 284.917 120.741 285.795L120.739 285.796C105.559 301.097 90.3882 316.407 75.1946 331.698C64.9714 341.986 54.7728 352.34 44.3987 362.517L44.3968 362.519C41.337 365.513 37.882 369.528 32.7679 371.245L32.7669 371.244C29.7888 372.244 26.5151 372.238 23.8753 369.745L23.6214 369.496C23.2834 369.15 22.8973 368.823 22.4114 368.406C21.9546 368.013 21.4121 367.543 20.9163 367.004C19.8707 365.869 18.9616 364.351 18.9915 362.2V362.197C19.0248 360.03 19.3735 357.897 21.1761 355.813C23.6497 352.947 26.3603 350.406 29.0355 347.941C35.5822 341.894 41.7049 335.444 48.0286 329.011C54.1904 322.741 60.7015 316.706 66.9241 310.629C76.284 301.489 85.7159 292.618 94.4856 283.048L94.804 282.712C95.5567 281.943 96.3708 281.278 97.1468 280.679C98.064 279.971 98.826 279.427 99.6204 278.784C114.286 264.124 128.949 249.45 143.641 234.806L144.024 234.415C145.756 232.61 146.702 230.992 146.66 228.665L146.637 228.156C146.46 225.795 146.065 222.802 145.967 220.152C145.866 217.417 146.037 214.529 147.125 211.936L147.341 211.452C148.474 209.061 150.37 207.129 152.25 205.464C154.409 203.553 156.341 202.14 158.14 200.364C170.319 188.333 182.522 176.359 194.598 164.252C197.335 161.504 200.507 159.636 204.94 160.34H204.939C206.063 160.518 207.215 160.444 208.723 160.412L209.194 160.388C210.203 160.309 210.606 160.066 210.772 159.907C210.938 159.747 211.212 159.336 211.225 158.122L211.217 157.707C211.171 156.833 210.955 156.581 210.866 156.499C210.707 156.355 210.2 156.069 208.691 156.069C203.855 156.069 198.785 156.217 193.854 156.14C193.039 156.128 192.396 156.406 191.735 156.979L191.451 157.243C179.141 169.323 166.938 181.633 154.442 193.59C149.384 198.43 144.735 203.134 141.292 208.981V208.982C139.229 212.483 138.863 216.293 139.146 220.351L139.21 221.166V221.167C139.465 224.038 139.024 226.486 137.971 228.712C137.065 230.629 135.744 232.298 134.192 233.884L133.513 234.56C118.052 249.548 102.905 264.84 87.5882 280.039C87.4249 280.203 87.2727 280.38 87.0345 280.649C86.8185 280.893 86.5349 281.207 86.2044 281.501C85.7678 281.891 85.219 282.271 84.5345 282.505C84.1073 283.317 83.5574 283.967 83.0257 284.502C82.6464 284.884 82.2495 285.235 81.9085 285.537C81.551 285.852 81.2523 286.116 80.9817 286.386L80.9798 286.388C66.3541 300.972 51.6869 315.508 37.0228 330.046C34.4972 332.551 31.4777 333.799 28.5579 333.045C25.6442 332.293 23.6012 329.746 22.5843 326.366V326.365C22.2957 325.411 22.0305 324.747 21.6595 324.225C21.321 323.749 20.833 323.307 19.9505 322.943L19.9485 322.942C14.1688 320.553 10.2454 316.017 9.84405 309.18V309.178C9.67094 306.163 10.2463 303.032 12.7317 300.537H12.7327C19.627 293.62 26.5499 286.734 33.4837 279.868L33.4925 279.86C33.9342 279.428 34.4248 279.145 34.7747 278.958C35.1127 278.778 35.2612 278.707 35.4232 278.621C41.7064 272.438 47.9973 266.285 54.2269 260.072C55.1848 259.116 56.2481 258.852 57.1233 258.791C57.5033 258.765 57.8947 258.776 58.1233 258.778C58.3954 258.78 58.5477 258.774 58.6663 258.757H58.6722C60.3436 258.522 62.0644 257.804 63.2571 256.761C64.4087 255.754 64.978 254.551 64.7952 253.135C64.452 250.497 63.733 249.321 62.4515 248.86V248.859C60.1194 248.024 58.167 247.926 56.6116 249.276C55.5563 250.193 54.913 251.124 54.6038 252.057C54.3015 252.969 54.2702 254.025 54.6732 255.3L54.7552 255.546C54.8623 255.876 55.0207 256.433 55.013 256.982C54.9988 257.985 54.5219 258.778 53.8528 259.398C47.6327 265.176 41.3946 271.077 35.1429 276.888L32.4622 279.373C31.9301 279.865 31.0916 280.733 30.2669 281.37C29.453 281.998 28.446 282.585 27.1819 282.835C25.1511 284.044 22.5829 285.671 19.2151 285.558V285.557C16.3141 285.462 13.7418 284.561 11.8294 282.023C9.62927 280.203 8.19063 277.778 7.83135 275.155C7.45581 272.413 8.28229 269.603 10.387 267.296C15.7067 261.463 21.837 256.206 27.2776 250.876C36.1928 242.146 45.2077 233.519 54.1673 224.874C69.4764 210.099 84.7647 195.349 99.594 180.138C100.838 178.859 102.271 178.345 103.581 178.124C104.217 178.018 104.835 177.977 105.375 177.953C105.957 177.926 106.386 177.918 106.844 177.882C108.563 177.749 109.461 177.33 110.219 176.331L110.22 176.329C111.814 174.234 113.605 172.371 115.39 170.615C117.212 168.821 118.95 167.212 120.644 165.452L120.645 165.451C122.322 163.71 124.292 162.589 126.822 162.188L126.825 162.187C128.05 161.994 128.645 161.52 128.964 160.999C129.322 160.415 129.548 159.416 129.311 157.818V157.817C129.235 157.314 128.897 156.727 128.277 156.249C127.661 155.775 126.909 155.524 126.221 155.554H126.218C125.657 155.578 124.754 155.992 123.966 156.842C123.18 157.691 122.904 158.542 122.961 159.065L123.009 159.465C123.122 160.491 123.184 162.124 121.757 163.412V163.413C118.666 166.202 115.762 168.668 112.751 171.419V171.42C111.484 172.577 110.081 172.907 108.844 172.949C108.255 172.968 107.689 172.923 107.216 172.878C106.703 172.83 106.336 172.787 105.955 172.769V172.768C104.554 172.704 103.525 173.198 102.526 174.205C84.0965 192.821 64.7638 210.629 45.9808 228.759L42.2317 232.389C34.9139 239.503 27.4041 246.41 19.9026 253.275C16.0424 256.809 11.0302 257.384 6.62432 254.814L6.62335 254.813C4.62156 253.643 2.88053 252.15 1.68096 250.215C0.467626 248.259 -0.121259 245.963 0.0208076 243.331V243.33C0.19442 240.145 2.06182 238.004 3.62725 236.445C8.60396 231.472 13.7207 226.615 18.7474 221.758H18.7483C26.1836 214.579 33.6211 207.391 41.0706 200.221C41.3357 199.965 41.454 199.784 41.5081 199.663C41.5402 199.592 41.564 199.512 41.5648 199.397L41.5569 199.268C41.0286 194.661 43.5736 191.534 46.1185 189.154L46.1194 189.153C47.019 188.312 48.1219 187.258 49.3997 186.461L49.4046 186.459C50.9202 185.52 51.835 184.502 52.3226 183.417C52.8061 182.342 52.9588 181.001 52.5999 179.248C52.2739 177.665 52.4749 175.969 52.5589 174.836V174.835C52.8329 171.17 54.0964 168.043 56.4075 165.801C58.7219 163.556 61.8853 162.393 65.5823 162.277C68.3875 162.189 71.1944 162.203 73.9476 162.205C76.7146 162.208 79.4369 162.198 82.1429 162.07C94.4181 161.483 105.038 157.2 113.617 148.289C120.78 140.846 125.017 132.036 126.357 121.746L126.523 120.387C126.885 117.212 127.086 114.008 127.288 110.747C127.518 107.044 127.75 103.265 128.232 99.5062L128.525 97.2797C130.029 86.1497 132.186 75.0365 136.776 64.3559L137.212 63.35C146.463 42.2863 160.511 24.8845 176.325 8.87734C178.501 6.67476 180.737 4.29779 183.064 2.09413C183.581 1.60245 184.124 1.13274 184.668 0.810932ZM185.679 5.12636C183.465 7.23231 181.398 9.4342 179.17 11.6889C163.53 27.5207 149.85 44.521 140.874 64.9594L140.451 65.935C135.78 76.8042 133.706 88.2421 132.2 100.014C131.737 103.62 131.512 107.267 131.281 110.995C131.051 114.701 130.814 118.487 130.324 122.262C128.874 133.4 124.256 143.003 116.499 151.064H116.498C107.131 160.793 95.5074 165.436 82.3343 166.065L82.3333 166.066C79.5204 166.199 76.7114 166.208 73.9446 166.205C71.1641 166.203 68.4339 166.19 65.7083 166.275C62.7823 166.367 60.6454 167.263 59.1927 168.672C57.7367 170.085 56.7658 172.208 56.5472 175.133C56.4545 176.384 56.3608 177.294 56.4622 178.102L56.5179 178.442V178.444C57.0072 180.832 56.8699 183.057 55.971 185.057C55.0764 187.047 53.5165 188.614 51.5149 189.855L51.5159 189.856C50.6334 190.406 49.8257 191.164 48.8499 192.076C46.5408 194.235 45.2281 196.174 45.5306 198.812L45.5599 199.164C45.6357 200.781 44.9183 201.998 44.0374 202.911L43.845 203.103C40.1217 206.686 36.4011 210.274 32.6819 213.864L21.5267 224.635C16.4649 229.526 11.398 234.334 6.45245 239.276L6.4505 239.279C5.00136 240.722 4.10258 241.942 4.01495 243.547C3.91391 245.42 4.328 246.894 5.08038 248.107C5.84642 249.342 7.03433 250.42 8.63995 251.359L8.90753 251.508C11.6799 252.998 14.6743 252.637 17.2015 250.324H17.2024C24.7041 243.459 32.1738 236.589 39.4437 229.521L43.2142 225.87C62.0898 207.65 81.2694 189.991 99.6839 171.39L99.6849 171.389C101.32 169.74 103.401 168.648 106.141 168.774H106.143C106.649 168.798 107.19 168.858 107.591 168.896C108.032 168.938 108.388 168.961 108.71 168.951C109.296 168.931 109.683 168.804 110.053 168.466C112.969 165.802 116.179 163.057 119.052 160.465C119.057 160.415 119.062 160.33 119.054 160.191C119.044 160.017 119.022 159.815 118.989 159.536V159.53C118.746 157.424 119.795 155.46 121.032 154.124C122.27 152.787 124.096 151.642 126.044 151.558L126.369 151.552C127.99 151.56 129.524 152.161 130.717 153.079C131.905 153.994 132.881 155.325 133.21 156.91L133.268 157.23V157.232C133.583 159.357 133.4 161.416 132.376 163.088C131.314 164.824 129.555 165.807 127.446 166.139L127.445 166.138C125.946 166.377 124.8 166.978 123.737 168.013L123.526 168.226C121.79 170.029 119.899 171.789 118.196 173.465C116.455 175.178 114.824 176.884 113.404 178.751L113.403 178.75C111.728 180.956 109.576 181.682 107.154 181.87C106.614 181.912 106.014 181.928 105.559 181.949C105.063 181.971 104.637 182.003 104.245 182.069C103.501 182.194 102.945 182.43 102.462 182.927L102.46 182.929C91.3005 194.376 79.8849 205.558 68.4192 216.664L56.9446 227.752C47.9694 236.412 38.9775 245.018 30.0765 253.735C24.3482 259.346 18.5861 264.242 13.3421 269.993H13.3411C12.0158 271.445 11.5839 273.075 11.7942 274.612C12.0088 276.178 12.9156 277.792 14.5335 279.07L14.7581 279.247L14.9241 279.48C15.9392 280.906 17.2417 281.492 19.348 281.561H19.3499C21.4926 281.633 23.0609 280.614 25.469 279.201L25.8226 278.994L26.2298 278.942C26.7698 278.873 27.2603 278.637 27.8226 278.203C28.4679 277.704 28.9324 277.189 29.7474 276.436C36.8502 269.872 43.8068 263.273 50.9114 256.67V256.668C50.8959 256.62 50.8785 256.566 50.8607 256.509L50.8597 256.507C50.2306 254.518 50.2119 252.595 50.8069 250.799C51.3954 249.024 52.5352 247.519 53.9896 246.255V246.254C57.2406 243.433 61.0801 244.12 63.803 245.095L63.806 245.097C67.1333 246.295 68.2435 249.286 68.6829 252.067L68.762 252.62V252.621C69.1543 255.656 67.8002 258.102 65.8899 259.772C64.0204 261.406 61.5394 262.393 59.2288 262.718L59.2278 262.717C58.7885 262.78 58.3782 262.78 58.0872 262.778C57.7512 262.775 57.5782 262.769 57.3997 262.782C57.2489 262.792 57.187 262.812 57.1634 262.821C57.1516 262.825 57.1177 262.838 57.0521 262.904H57.0511C50.7421 269.196 44.3647 275.433 38.0267 281.671L37.8489 281.847L37.6321 281.973C37.3183 282.156 36.7988 282.411 36.6556 282.488C36.403 282.622 36.3178 282.691 36.2903 282.718C29.3631 289.578 22.4494 296.455 15.5657 303.361L15.5648 303.36C14.1699 304.761 13.7023 306.587 13.8372 308.946L13.8724 309.418C14.311 314.244 17.0487 317.414 21.4749 319.245C23.0196 319.882 24.1227 320.787 24.9192 321.908C25.6827 322.982 26.0971 324.164 26.4134 325.21L26.4144 325.213C27.1956 327.81 28.479 328.894 29.5579 329.172C30.6304 329.449 32.2701 329.127 34.2073 327.205C48.8727 312.665 63.5348 298.134 78.1556 283.555C78.5284 283.183 78.9223 282.836 79.2591 282.538C79.613 282.226 79.914 281.959 80.1868 281.684C80.7206 281.146 81.0344 280.688 81.1878 280.171L81.6106 278.746L83.097 278.741C83.21 278.74 83.3068 278.726 83.5423 278.516C83.6821 278.391 83.8316 278.232 84.0403 277.996C84.2251 277.788 84.4895 277.48 84.7669 277.204L84.7708 277.2C100.054 262.033 115.246 246.697 130.729 231.688C132.415 230.052 133.612 228.574 134.355 227.002C135.081 225.467 135.423 223.738 135.226 221.52V221.519C134.807 216.814 135.026 211.736 137.846 206.951C141.596 200.583 146.609 195.549 151.676 190.701L154.011 188.458C165.669 177.233 177.055 165.765 188.649 154.387L188.65 154.386C189.902 153.159 191.581 152.106 193.913 152.14H193.915C198.847 152.217 203.652 152.069 208.691 152.069C210.493 152.069 212.267 152.37 213.553 153.537C214.896 154.755 215.239 156.475 215.225 158.155V158.159C215.208 159.874 214.818 161.563 213.545 162.788C212.296 163.991 210.581 164.37 208.814 164.411H208.812C207.555 164.438 205.894 164.542 204.313 164.291H204.312C201.624 163.864 199.668 164.831 197.432 167.076L197.43 167.077C185.34 179.198 173.116 191.191 160.951 203.209C159.105 205.032 156.664 206.9 154.903 208.459C152.989 210.154 151.545 211.737 150.814 213.482V213.483C150.062 215.275 149.871 217.47 149.964 220.004C150.061 222.623 150.417 225.086 150.625 227.855C150.962 232.309 148.95 235.163 146.464 237.64L146.463 237.639C131.746 252.308 117.06 267.007 102.365 281.697L102.293 281.768L102.215 281.832C101.36 282.53 100.364 283.249 99.5901 283.846C98.7607 284.486 98.039 285.092 97.4349 285.75C88.5665 295.428 79.0062 304.422 69.719 313.492C63.3838 319.678 57.0161 325.572 50.8812 331.815V331.816C44.6232 338.182 38.3896 344.746 31.7493 350.879L31.7483 350.881C29.0711 353.349 26.5126 355.753 24.2034 358.428L24.2015 358.429C23.2626 359.515 23.0176 360.563 22.9915 362.258C22.9806 363.09 23.2765 363.663 23.8577 364.294C24.1757 364.639 24.5524 364.972 25.0179 365.371C25.4543 365.746 25.9939 366.201 26.4808 366.699L26.7161 366.923C27.9142 367.986 29.425 368.148 31.4944 367.453H31.4954C35.5088 366.106 38.1662 363.018 41.5989 359.66C51.9484 349.506 62.1175 339.183 72.3567 328.878C87.5491 313.589 102.717 298.282 117.9 282.979C119.048 281.82 119.837 280.991 120.255 279.938L120.677 278.876L121.804 278.7C122.074 278.657 122.327 278.53 122.688 278.185C122.879 278.002 123.072 277.787 123.314 277.509C123.537 277.253 123.824 276.917 124.127 276.607L124.132 276.602C142.712 257.757 161.256 238.814 180.348 220.421L180.886 219.886C183.498 217.2 184.903 214.358 184.462 210.766V210.763C184.355 209.881 184.391 209.016 184.455 208.27C184.621 206.347 185.657 204.558 186.907 203.287C188.127 202.047 189.908 200.95 191.842 201.003H191.844C193.811 201.057 195.493 201.855 196.68 203.285C197.827 204.666 198.387 206.481 198.509 208.418C199.173 218.958 195.403 227.543 187.963 234.8H187.962C172.945 249.444 158.172 264.319 143.276 279.132C143.043 279.364 142.796 279.583 142.615 279.747C142.415 279.928 142.269 280.063 142.146 280.194C141.915 280.439 141.856 280.574 141.831 280.681L141.692 281.281L141.24 281.699C135.37 287.111 129.48 292.292 123.837 297.791H123.836C116.109 305.316 108.792 312.977 101.065 320.626L101.064 320.625C90.8312 330.762 80.5688 340.889 70.1907 350.898C62.5226 358.299 55.0425 366.503 46.7249 373.608L46.7259 373.609C44.5245 375.492 42.9057 376.773 42.6087 378.837L42.5843 379.039C42.2702 382.176 43.0286 384.544 44.9808 385.699C47.4214 387.138 50.218 387.438 52.9573 386.078V386.077C54.3705 385.375 55.5922 384.393 56.8314 383.222C57.454 382.634 58.0572 382.021 58.7005 381.373C59.3337 380.736 60.0002 380.07 60.7034 379.427C64.9627 375.527 68.9591 371.353 72.9837 367.112C76.9939 362.886 81.0389 358.586 85.3323 354.519V354.518C93.3076 346.968 100.98 339.151 108.852 331.391L123.53 316.903C128.425 312.072 133.324 307.243 138.234 302.427L141.223 299.476C144.219 296.507 147.244 293.502 150.373 290.617L150.374 290.616C154.352 286.952 158.21 283.709 160.981 279.468L161.474 278.714L162.365 278.583C163.17 278.465 163.775 278.057 164.458 277.302C164.817 276.906 165.15 276.467 165.556 275.94C165.94 275.441 166.391 274.859 166.906 274.325C169.584 271.535 172.082 268.594 174.7 265.607C177.297 262.643 179.989 259.661 182.97 256.915C183.866 256.086 184.309 255.259 184.369 254.4C184.651 250.381 186.71 247.565 189.451 245.295C197.066 238.988 204.182 232.094 211.213 225.022L211.215 225.021C211.841 224.392 212.023 224.15 212.095 223.972C212.106 223.946 212.206 223.775 211.96 223.14C210.533 219.468 212.484 215.845 215.262 214.275H215.264C217.902 212.787 221.409 212.68 224.302 214.242L224.58 214.398L224.581 214.399C226.67 215.624 227.5 217.435 227.696 219.239C227.871 220.856 227.534 222.583 227.369 223.688V223.692C226.841 227.195 223.755 228.938 220.963 229.287L220.961 229.287C219.762 229.436 218.946 229.873 218.166 230.732V230.733C211.866 237.67 204.712 243.942 198.2 250.334C196.399 252.105 195.188 253.345 194.773 255.311L194.772 255.313C194.164 258.177 192.338 260.429 190.63 262.23C184.436 268.781 178.048 274.286 173.122 281.375L173.055 281.472L172.978 281.56C171.528 283.198 170.884 284.863 171.123 286.968H171.122C171.42 289.563 170.003 291.613 168.675 292.999L168.674 292.998C166.38 295.395 163.982 298.015 161.62 300.446L161.619 300.447C157.826 304.345 153.991 308.214 150.171 312.073V312.074C146.595 315.685 143.018 319.294 139.441 322.904C135.864 326.513 132.287 330.123 128.711 333.734C127.88 334.573 127.446 335.343 127.291 336.037C127.164 336.61 127.194 337.273 127.539 338.079L127.707 338.433L127.708 338.436C131.99 346.742 142.363 348.061 147.691 342.349H147.692C152.253 337.463 157.054 332.804 161.8 328.187C162.96 327.056 164.354 325.632 165.929 324.551C167.555 323.436 169.52 322.577 171.899 322.659H171.902C174.629 322.757 176.556 321.508 179.111 319.663L179.112 319.663C179.885 319.104 180.825 318.419 181.875 317.898L182.21 317.74C185.676 316.197 189.362 317.395 191.344 320.624C193.419 324.001 192.704 328.044 190.091 331.066L189.832 331.355C186.915 334.507 183.482 336.799 179.989 338.868V338.869C175.203 341.7 171.927 346.25 168.5 351.188L168.499 351.189C167.794 352.204 166.891 353.509 165.576 354.286C164.072 355.173 162.363 355.221 160.413 354.59H160.412C156.907 353.456 153.501 354.611 151.103 357.423L151.102 357.424C149.771 358.983 148.803 360.534 148.382 362.129C147.978 363.663 148.045 365.362 149.007 367.351L149.232 367.789C150.404 369.96 152.3 371.776 154.408 372.87C156.669 374.043 158.944 374.282 160.733 373.569L161.362 373.306C164.413 371.973 166.048 370.346 166.827 368.517C167.681 366.516 167.69 363.858 166.66 360.243V360.242C166.139 358.406 165.987 356.779 166.436 355.24C166.882 353.708 167.842 352.554 168.912 351.515V351.514C169.406 351.035 169.861 350.54 170.405 349.968C170.927 349.42 171.509 348.826 172.159 348.276C173.203 347.393 174.891 345.789 177.476 345.753C182.19 345.687 185.704 342.798 189.703 339.476L190.106 339.13C194.166 335.512 195.341 330.522 195.314 324.422C195.249 309.926 194.749 295.209 195.668 280.55L195.67 280.518L195.673 280.487C196.298 273.899 197.642 267.399 200.629 261.225L200.63 261.223C204.349 253.552 209.424 246.914 216.433 241.848L217.165 241.33C224.762 236.083 233.338 233.909 242.201 233.152L243.363 233.066C255.359 232.33 266.844 236.073 277.658 238.391H277.657C284.705 239.902 291.462 241.166 298.412 241.224H298.411C302.833 241.26 307.1 241.187 311.117 240.225L311.117 240.224C323.578 237.243 333.94 230.583 342.444 220.927C346.228 216.627 349.731 212.081 353.365 207.508L353.366 207.506C353.76 207.011 354.11 206.446 354.525 205.76C354.894 205.149 355.325 204.424 355.835 203.737C355.801 203.711 355.765 203.683 355.725 203.655L352.238 201.253L352.297 201.236C347.096 197.625 341.907 194.025 336.665 190.509L333.914 188.676C325.599 183.165 318.047 177.345 309.774 172.263L308.11 171.257C303.481 168.507 299.179 165.268 294.972 162.146L294.97 162.144C294.549 161.83 293.871 161.363 293.352 160.74C292.749 160.015 292.398 159.163 292.248 158.102V158.101C291.562 153.211 291.335 148.318 291.162 143.523L291.128 142.775C290.701 135.075 288.029 128.491 282.558 123.314C276.458 117.54 270.272 111.705 264.619 105.329V105.329C258.929 98.9143 251.465 95.4417 243.197 93.098C240.197 92.2474 237.14 91.7556 233.881 91.1312C230.678 90.5175 227.346 89.7847 224.096 88.4467H224.095C217.147 85.5827 210.403 82.1484 204.937 76.2816V76.2807C200.738 71.7709 196.6 66.7126 195.297 59.9838C194.079 53.6954 192.789 47.3033 192.076 40.7582L191.941 39.4467C190.826 27.9185 188.309 16.5635 185.679 5.12636ZM203.829 132.899C205.402 131.746 207.432 131.598 209.088 131.937C210.63 132.252 212.309 133.084 213.297 134.546L213.486 134.847V134.848C214.388 136.413 214.638 138.169 214.131 139.829C213.628 141.476 212.445 142.827 210.846 143.747L210.843 143.749C210.363 144.024 209.437 144.629 208.486 144.932C207.352 145.292 206.06 145.303 204.688 144.583L204.684 144.581C202.942 143.664 201.086 143.386 199.026 143.391C197.989 143.393 196.929 143.467 195.811 143.557C194.715 143.645 193.537 143.752 192.375 143.803C187.12 144.035 182.481 146.437 177.551 149.305L177.552 149.306C176.971 149.646 176.453 150.094 175.895 150.658C175.613 150.942 175.339 151.238 175.034 151.566C174.738 151.885 174.414 152.232 174.072 152.573L174.07 152.575C149.897 176.553 125.724 200.525 101.552 224.497C101.502 224.547 101.456 224.593 101.424 224.623C101.386 224.66 101.365 224.679 101.347 224.698L101.331 224.713C100.427 225.601 99.8584 226.166 99.4974 226.609C99.4409 226.678 99.3953 226.736 99.3597 226.786C99.3833 226.816 99.4098 226.85 99.4417 226.888C99.7799 227.288 100.345 227.815 101.284 228.651L101.757 229.087C106.523 233.653 107.468 239.793 105.981 245.148C104.512 250.436 100.615 255.18 95.4017 257.088L94.8929 257.264C91.0574 258.511 87.3491 258.668 83.9427 257.587C80.532 256.505 77.6025 254.238 75.2327 250.948V250.947C70.4455 244.304 70.6945 235.802 75.7005 228.915C78.6522 224.851 82.4899 221.553 85.7952 218.396V218.395C102.775 202.187 119.176 185.48 135.992 169.009V169.008C142.629 162.509 149.21 155.648 156.091 149.222H156.092C164.627 141.259 174.698 136.767 185.953 134.875C186.678 134.753 187.376 134.752 187.962 134.77C188.583 134.789 188.964 134.817 189.43 134.822C193.585 134.303 197.841 133.846 202.179 133.907H202.183C202.252 133.908 202.382 133.893 202.661 133.732C202.997 133.538 203.277 133.306 203.824 132.903L203.829 132.899ZM208.287 135.856C207.352 135.665 206.586 135.84 206.199 136.12C205.849 136.379 205.255 136.853 204.661 137.196C204.013 137.57 203.162 137.92 202.123 137.905V137.906L202.12 137.905L202.118 137.906V137.905C198.032 137.848 193.968 138.285 189.788 138.808L189.664 138.824H189.539C188.971 138.824 188.264 138.781 187.842 138.768C187.338 138.753 186.953 138.764 186.621 138.82H186.618C176.035 140.599 166.712 144.784 158.821 152.147C151.969 158.544 145.565 165.233 138.79 171.867C123.108 187.228 107.614 202.968 91.7376 218.241L88.5579 221.288C85.0384 224.65 81.6112 227.584 78.9368 231.266V231.267C74.9907 236.695 74.7891 243.067 78.1429 248.124L78.4788 248.61L78.8489 249.107C80.7184 251.531 82.8492 253.044 85.1526 253.775C87.6141 254.556 90.4526 254.501 93.6556 253.46C97.6594 252.158 100.912 248.448 102.126 244.078C103.284 239.91 102.532 235.365 98.9769 231.964L98.6243 231.639C97.7321 230.845 96.9428 230.127 96.388 229.471C95.8375 228.82 95.2403 227.914 95.261 226.743C95.2812 225.606 95.8787 224.717 96.3968 224.081C96.9306 223.426 97.6885 222.684 98.5286 221.859C98.5758 221.812 98.6207 221.769 98.6507 221.741C98.6883 221.704 98.7087 221.685 98.7269 221.666L98.7356 221.658C122.908 197.685 147.08 173.713 171.252 149.735C171.532 149.457 171.806 149.164 172.105 148.842C172.396 148.529 172.716 148.183 173.05 147.845C173.724 147.164 174.524 146.443 175.534 145.853L175.536 145.851C180.457 142.988 185.86 140.087 192.2 139.807C193.266 139.76 194.335 139.663 195.489 139.57C196.62 139.478 197.813 139.394 199.017 139.391C201.437 139.385 204.015 139.709 206.545 141.041H206.546C206.743 141.145 206.868 141.166 206.942 141.171C207.019 141.176 207.121 141.168 207.274 141.12C207.438 141.067 207.639 140.976 207.912 140.826C208.238 140.646 208.431 140.521 208.854 140.279C209.728 139.775 210.149 139.176 210.306 138.662C210.459 138.161 210.424 137.546 210.021 136.846V136.845C209.827 136.511 209.237 136.05 208.287 135.856ZM195.597 175.596C197.164 175.089 198.922 175.229 200.194 175.397H200.193C201.966 175.63 203.29 176.452 204.116 177.668L205.104 176.681L205.096 181.066C205.097 181.155 205.097 181.242 205.095 181.329V181.525C205.092 183.204 204.826 184.854 203.879 186.146C202.862 187.534 201.347 188.136 199.69 188.286H199.689C198.122 188.426 196.841 189.142 195.501 190.478L195.232 190.753C190.721 195.492 186.03 200.076 181.445 204.651L181.444 204.65C180.477 205.615 180.08 206.135 179.965 207.134V207.139C179.718 209.244 178.857 211.034 177.483 212.335C176.199 213.551 174.563 214.252 172.801 214.451L172.447 214.484C170.678 214.614 169.003 213.83 167.731 212.776C166.514 211.768 165.484 210.372 164.884 208.779L164.77 208.457C163.96 206.035 164.805 203.521 166.248 201.747C167.709 199.953 170.024 198.597 172.684 198.654C173.558 198.671 174.177 198.504 174.707 198.231C175.273 197.94 175.835 197.481 176.538 196.77L177.935 195.373C181.205 192.13 184.578 188.957 187.824 185.796C190.187 183.492 191.755 182.516 192.072 179.98V179.978C192.211 178.87 192.601 177.894 193.271 177.109C193.936 176.329 194.771 175.864 195.597 175.596ZM199.669 179.363C198.46 179.203 197.479 179.191 196.828 179.402C196.546 179.493 196.401 179.604 196.315 179.704C196.233 179.8 196.099 180.01 196.04 180.478C195.502 184.781 192.359 186.962 190.616 188.662L190.615 188.662C186.822 192.356 183.053 195.878 179.381 199.583C178.566 200.409 177.656 201.213 176.537 201.788C175.383 202.382 174.102 202.685 172.603 202.655L172.6 202.654C171.379 202.628 170.173 203.261 169.35 204.273C168.509 205.306 168.306 206.417 168.564 207.189L168.702 207.556C169.057 208.399 169.629 209.153 170.283 209.695C171.055 210.334 171.742 210.525 172.152 210.495L172.352 210.476C173.342 210.365 174.144 209.988 174.732 209.432C175.353 208.843 175.842 207.952 175.992 206.672C176.27 204.267 177.51 202.927 178.619 201.82V201.819C183.244 197.205 187.871 192.684 192.334 187.995C194.171 186.065 196.361 184.569 199.33 184.302L199.646 184.263C200.315 184.155 200.539 183.938 200.653 183.783C200.785 183.602 200.932 183.268 201.019 182.666L201.092 181.412C201.13 180.765 201.022 180.268 200.839 179.965C200.715 179.759 200.463 179.467 199.671 179.363H199.669ZM232.179 144.207C234.084 144.746 235.846 144.958 237.835 145.291C239.768 145.615 241.828 146.046 243.913 147.064C247.652 148.889 252.105 149.533 256.756 150.276H256.757C258.766 150.596 260.534 151.294 261.86 152.614C263.2 153.947 263.869 155.697 264.097 157.684V157.687C264.295 159.437 264.873 160.984 265.503 162.908L265.776 163.757L265.777 163.76C265.923 164.232 266.055 164.778 266.066 165.33C266.076 165.89 265.964 166.67 265.385 167.337C264.801 168.011 264.029 168.24 263.425 168.303C262.834 168.365 262.214 168.291 261.628 168.173C259.923 167.832 258.015 167.887 255.993 168.051H255.992C252.721 168.314 249.924 167.556 247.673 165.922C245.589 164.409 244.11 162.247 243.116 159.78L242.923 159.282C242.221 157.39 241.357 155.977 240.275 154.871C239.194 153.768 237.815 152.888 235.97 152.174L235.968 152.173C234.253 151.508 231.453 150.351 229.834 147.001L227.899 142.997L232.179 144.207ZM240.598 150.029C241.527 150.619 242.371 151.295 243.133 152.074C244.688 153.662 245.82 155.592 246.673 157.889C247.472 160.042 248.604 161.655 250.023 162.685C251.327 163.632 253.012 164.188 255.222 164.092L255.671 164.064C257.536 163.912 259.634 163.818 261.69 164.126C261.106 162.367 260.367 160.294 260.122 158.137V158.136C259.964 156.765 259.557 155.965 259.038 155.449C258.572 154.984 257.845 154.58 256.662 154.326L256.127 154.226C251.676 153.515 246.549 152.801 242.159 150.658C241.646 150.407 241.127 150.204 240.598 150.029ZM126.359 69.0336C127.382 72.7773 125.936 75.5978 125.216 77.348C122.86 83.0932 122.354 89.1546 121.486 95.6342C120.906 99.9553 120.793 104.323 120.559 108.868C120.327 113.359 119.978 117.971 118.884 122.509C116.141 133.882 110.749 144.007 99.3099 150L99.3089 150.001C91.7143 153.978 83.8818 156.049 75.2767 155.944H75.2757C64.3892 155.809 53.5544 156.031 42.597 156.06L42.5833 156.068L42.1097 156.069C35.727 156.076 30.3391 151.271 29.6624 145.027C29.5329 143.846 29.8789 142.65 30.3343 141.639C30.8061 140.592 31.4853 139.545 32.261 138.59C33.7683 136.736 35.9018 134.918 38.0784 134.212L38.4681 134.094C40.4174 133.541 42.3615 133.561 43.971 133.561C56.3321 133.561 68.6625 133.609 81.0023 133.561H81.0032C82.0099 133.558 83.1038 133.645 84.1595 134.082C85.1269 134.484 85.9366 135.125 86.6194 136.012L86.9046 136.407L86.9056 136.408C87.4943 137.28 88.0773 137.595 88.6106 137.698C89.2067 137.813 90.0343 137.716 91.1429 137.224L91.3323 137.136C92.2573 136.685 92.8729 136.072 93.2562 135.312C93.6776 134.476 93.9002 133.294 93.7171 131.653V131.651C93.6153 130.731 93.3422 130.137 92.9778 129.71C92.6505 129.327 92.1482 128.96 91.3499 128.651L90.9886 128.522C89.3258 127.972 87.9387 128.297 85.9964 129.111L85.9944 129.112C83.651 130.09 81.0327 129.965 78.764 129.167C76.4953 128.369 74.3899 126.835 73.098 124.732V124.731C71.1707 121.596 71.5727 118.063 73.2269 115.412C74.8659 112.784 77.833 110.849 81.2923 110.875C86.8177 110.917 92.3365 110.935 97.8519 110.887L98.2728 110.879C100.34 110.819 101.823 110.44 103.038 109.139L103.039 109.138C104.3 107.79 104.285 106.125 103.726 104.045V104.044C103.598 103.567 103.305 103.221 102.757 102.946C102.159 102.645 101.314 102.472 100.338 102.457V102.456C98.5341 102.43 96.7254 102.435 94.8968 102.44C93.5289 102.444 92.1493 102.449 90.7659 102.441L89.3821 102.427C89.2404 102.425 89.1203 102.437 88.8021 102.454C88.5263 102.47 88.153 102.484 87.7308 102.447C86.8236 102.366 85.8597 102.063 84.8177 101.332L81.7122 99.1557L85.263 97.8226C100.845 91.9709 111.7 80.6095 122.949 68.2172L125.397 65.5189L126.359 69.0336ZM121.615 75.5883C113.385 84.4303 104.706 92.7572 93.6946 98.4418C94.0907 98.4409 94.4874 98.441 94.8851 98.4398C96.7101 98.4346 98.5536 98.4303 100.399 98.4574H100.401C101.739 98.4781 103.236 98.7099 104.552 99.3705C105.918 100.056 107.112 101.227 107.589 103.007L107.708 103.474C108.286 105.868 108.528 109.121 105.961 111.868L105.962 111.869C103.519 114.485 100.503 114.862 97.8899 114.887H97.888C93.7281 114.923 89.5701 114.922 85.4153 114.902L81.262 114.875C79.3566 114.861 77.6144 115.937 76.6214 117.529C75.7049 118.998 75.5134 120.752 76.3294 122.325L76.5062 122.637V122.638C77.2497 123.848 78.5574 124.854 80.0911 125.394C81.625 125.934 83.2004 125.943 84.4534 125.42C86.6646 124.494 89.182 123.713 92.2415 124.723C93.7398 125.217 95.0463 125.973 96.0208 127.115C97.0044 128.268 97.5213 129.663 97.6927 131.209L97.7327 131.618C97.9035 133.649 97.6338 135.513 96.8284 137.112C95.9568 138.842 94.5408 140.092 92.7649 140.88C91.215 141.568 89.5267 141.948 87.8528 141.625C86.1161 141.29 84.6751 140.253 83.5901 138.646V138.645C83.2265 138.108 82.9116 137.895 82.6273 137.777C82.2928 137.638 81.8199 137.558 81.0169 137.561C68.6684 137.609 56.31 137.561 43.971 137.561C42.1389 137.561 40.6872 137.571 39.3118 138.017V138.018C38.1592 138.391 36.6223 139.567 35.3655 141.114C34.7592 141.86 34.2828 142.615 33.9817 143.283C33.7041 143.899 33.6353 144.307 33.6351 144.514L33.639 144.59V144.594C34.0828 148.697 37.5986 151.946 41.8577 152.063H42.1155C53.1214 152.039 64.2559 151.807 75.3255 151.944C83.2068 152.041 90.3893 150.156 97.4534 146.457L97.9212 146.208C107.662 140.911 112.45 132.126 114.995 121.572C115.997 117.416 116.335 113.118 116.565 108.662C116.792 104.258 116.913 99.6364 117.521 95.1029L117.824 92.7582C118.522 87.2366 119.237 81.384 121.516 75.8275L121.517 75.8256C121.55 75.7459 121.582 75.6664 121.615 75.5883ZM176.992 57.8383C178.886 59.5462 179.676 61.5702 180.121 63.431C180.338 64.3347 180.485 65.2566 180.621 66.0492C180.763 66.874 180.898 67.5892 181.094 68.2494L181.49 69.6088C183.42 76.424 184.621 83.4826 184.821 90.5629V90.5639C185.01 97.4174 181.644 102.937 175.421 106.167L174.81 106.473C173.546 107.081 172.44 107.618 171.549 107.944C170.748 108.236 169.545 108.593 168.367 108.118C167.078 107.597 166.551 106.405 166.279 105.558C165.99 104.66 165.783 103.47 165.565 102.11V102.109C164.083 92.868 164.848 83.6857 167.687 74.7592C169.345 69.5444 170.8 63.7213 173.92 58.3227L175.157 56.185L176.992 57.8383ZM175.893 63.2172C174.029 67.2667 172.917 71.5104 171.498 75.9711C168.842 84.3248 168.135 92.8755 169.514 101.475L169.675 102.445C169.814 103.247 169.933 103.816 170.055 104.227C170.092 104.214 170.133 104.202 170.176 104.186C170.836 103.945 171.726 103.517 173.076 102.868C178.356 100.328 180.971 96.0783 180.823 90.6762L180.772 89.3344C180.457 82.6254 179.207 75.9087 177.261 69.3949L177.26 69.391C176.99 68.4821 176.822 67.5597 176.679 66.7279C176.53 65.8624 176.409 65.1063 176.231 64.3617C176.134 63.9586 176.024 63.578 175.893 63.2172ZM238.916 11.7602C239.54 11.1402 240.71 10.2912 242.263 10.6547L242.579 10.7445L242.592 10.7484C243.483 11.0507 243.993 11.7074 244.258 12.2836C244.499 12.8053 244.583 13.3461 244.626 13.7103C244.668 14.0594 244.695 14.5185 244.714 14.7465C244.727 14.9003 244.741 15.0148 244.753 15.1L244.787 15.2768L244.788 15.2797C246.508 21.3572 247.386 27.7224 248.553 33.6352C249.749 39.6937 250.565 45.884 251.521 51.8637L251.848 53.9057L251.495 53.9496C251.776 56.0994 252.08 58.3393 252.246 60.5473C252.734 66.9234 251.996 73.153 250.74 79.265C250.631 79.7929 250.484 80.3463 250.249 80.848C250.01 81.359 249.627 81.932 248.987 82.3353C247.658 83.1721 246.193 82.7234 245.257 82.3402V82.3392C241.901 80.9671 238.373 80.0802 234.674 79.1098C231.026 78.1526 227.227 77.1184 223.607 75.4545L223.605 75.4535C218.561 73.1299 214.141 69.6762 210.811 65.0189L209.774 63.5609C208.736 62.0822 207.706 60.5373 206.8 58.9066V58.9057C205.812 57.1245 204.971 55.4315 205.233 53.5795C205.364 52.6486 205.746 51.8332 206.228 51.0746C206.7 50.3313 207.333 49.5419 208.06 48.6732V48.6723C217.883 36.9455 227.701 25.1911 237.527 13.4672C237.685 13.277 237.828 13.0767 238.076 12.7504C238.292 12.4644 238.579 12.0954 238.916 11.7602ZM240.594 16.0336L240.592 16.0365C230.762 27.7661 220.959 39.5001 211.126 51.2387L211.127 51.2396C210.403 52.1048 209.923 52.7176 209.606 53.2172C209.299 53.7013 209.216 53.9705 209.193 54.1381C209.144 54.4833 209.232 55.0459 210.296 56.9643H210.297C211.109 58.4261 212.045 59.8335 213.043 61.2562L214.061 62.6869L214.063 62.6889C216.951 66.7292 220.803 69.7582 225.277 71.8197H225.278C228.541 73.3198 232.025 74.2791 235.69 75.2406C239.304 76.1888 243.119 77.1444 246.772 78.6381L246.773 78.6391C246.775 78.6401 246.778 78.641 246.781 78.642C246.794 78.586 246.808 78.5261 246.822 78.4613V78.4603C248.034 72.5595 248.708 66.728 248.258 60.8529V60.85C248.049 58.0696 247.626 55.3793 247.276 52.4584L247.039 50.4838L247.251 50.4564C246.413 45.0352 245.675 39.7137 244.628 34.4105C243.398 28.1794 242.602 22.2453 240.939 16.3695V16.3685C240.881 16.1638 240.84 15.9571 240.809 15.7611C240.737 15.8538 240.666 15.9476 240.594 16.0336ZM228.537 310.642C228.537 315.877 228.62 321.12 228.762 326.361L228.772 326.957C228.777 328.409 228.631 330.241 227.752 331.741C226.006 334.728 226.192 337.865 226.204 341.925L226.236 355.029C226.254 368.133 226.241 381.237 226.241 394.333C226.241 397.406 225.763 400.397 225.012 403.276V403.277C224.279 406.082 221.966 408.349 219.483 409.733C216.992 411.121 213.85 411.891 211.073 411.152C209.259 410.669 207.691 409.107 206.65 407.594C205.58 406.04 204.704 404.013 204.703 402.082L204.7 394.563C204.701 387.042 204.715 379.517 204.715 372.006C204.715 371.654 204.711 371.302 204.707 370.949C201.603 373.781 198.698 376.839 195.76 379.965C192.596 383.332 189.387 386.788 185.936 390.004V390.005C182.009 393.665 178.276 397.507 174.419 401.366C170.581 405.205 166.645 409.034 162.395 412.558L162.394 412.557C156.945 417.079 148.443 414.859 145.553 408.47L145.419 408.163C144.139 405.079 143.459 402.639 144.172 400.33C144.526 399.185 145.172 398.23 145.941 397.348C146.694 396.483 147.659 395.584 148.73 394.597C156.811 387.14 163.999 379.253 172.009 371.471L172.01 371.47C176.655 366.963 181.287 362.611 185.533 357.908C188.386 354.747 191.614 351.849 194.531 349.019C197.496 346.141 200.234 343.251 202.409 339.902C204.711 336.35 206.129 332.518 206.151 328.366V328.364C206.246 312.39 206.299 296.413 206.37 280.434L206.371 280.22L206.418 280.011C207.717 274.139 209.06 267.907 212.442 262.26C218.269 252.521 227.055 247.266 237.699 245.124C243.546 243.95 249.368 244.261 255.09 245.701L255.089 245.703C255.867 245.9 256.615 246.109 257.224 246.377C257.816 246.638 258.625 247.103 259.071 248.018C259.531 248.963 259.369 249.901 259.168 250.547C258.967 251.194 258.617 251.893 258.238 252.595L258.237 252.596C254.989 258.599 251.694 264.002 250.521 270.27V270.272C249.814 274.023 248.923 277.172 248.999 280.54L249.001 280.598L248.999 280.656C248.698 289.322 248.813 297.81 250.667 306.1L250.915 307.175C251.509 309.679 252.199 312.15 252.867 314.738C253.621 317.657 254.329 320.665 254.734 323.759C256.105 334.212 255.568 344.628 252.828 354.836L252.557 355.824C249.512 366.598 245.518 377.087 239.757 386.858L239.758 386.859C239.164 387.872 238.323 388.91 237.599 389.921L235.563 392.762L234.145 389.568C233.145 387.314 233.433 385.119 233.433 383.949L233.429 347.771C233.432 335.711 233.44 323.652 233.451 311.594V311.59C233.454 310.539 233.412 309.853 233.236 309.33C233.1 308.928 232.877 308.592 232.292 308.288L232.289 308.287C231.202 307.72 230.285 307.844 229.686 308.211C229.087 308.579 228.537 309.354 228.537 310.642Z" fill="url(#paint0_linear_357_1261)"/>
<defs>
<linearGradient id="paint0_linear_357_1261" x1="358" y1="29.6241" x2="2.0003" y2="385.624" gradientUnits="userSpaceOnUse">
<stop stop-color="#7A9FB2" stop-opacity="0.29"/>
<stop offset="0.725962" stop-color="white" stop-opacity="0"/>
</linearGradient>
</defs>
</svg>
