<svg width="64" height="36" viewBox="0 0 64 36" fill="none" xmlns="http://www.w3.org/2000/svg">
<path d="M51.5879 14.5H36L43.7939 1L51.5879 14.5ZM37.7324 13.5H49.8555L43.7939 3L37.7324 13.5Z" fill="#F9E357"/>
<path d="M27.5879 18.5H12L19.7939 32L27.5879 18.5ZM13.7324 19.5H25.8555L19.7939 30L13.7324 19.5Z" fill="#F9E357"/>
<path d="M31.794 21L39.5882 34.5H23.9997L31.794 21Z" fill="#F9E357"/>
<path d="M51.5879 18.5H36L43.7939 32L51.5879 18.5ZM37.7324 19.5H49.8555L43.7939 30L37.7324 19.5Z" fill="#F9E357"/>
<path d="M63.5879 34.5H48L55.7939 21L63.5879 34.5ZM49.7324 33.5H61.8555L55.7939 23L49.7324 33.5Z" fill="#F9E357"/>
</svg>
