<svg width="640" height="284" viewBox="0 0 640 284" fill="none" xmlns="http://www.w3.org/2000/svg">
<g clip-path="url(#paint0_diamond_357_1080_clip_path)" data-figma-skip-parse="true"><g transform="matrix(0.281 0.317 -0.347898 0.308389 310.001 280)"><rect x="0" y="0" width="991.687" height="940.207" fill="url(#paint0_diamond_357_1080)" opacity="0.2" shape-rendering="crispEdges"/><rect x="0" y="0" width="991.687" height="940.207" transform="scale(1 -1)" fill="url(#paint0_diamond_357_1080)" opacity="0.2" shape-rendering="crispEdges"/><rect x="0" y="0" width="991.687" height="940.207" transform="scale(-1 1)" fill="url(#paint0_diamond_357_1080)" opacity="0.2" shape-rendering="crispEdges"/><rect x="0" y="0" width="991.687" height="940.207" transform="scale(-1)" fill="url(#paint0_diamond_357_1080)" opacity="0.2" shape-rendering="crispEdges"/></g></g><path d="M285.262 3.63477L9.8291 279.066L281.839 279.039L281.848 197.849L385.073 94.623L468.271 177.82L369.045 277.045L639.085 277.018L639.086 281.018L359.388 281.047L462.613 177.819L385.073 100.279L285.847 199.506L285.839 283.039L0.171875 283.067L282.434 0.806641L285.262 3.63477Z" data-figma-gradient-fill="{&#34;type&#34;:&#34;GRADIENT_DIAMOND&#34;,&#34;stops&#34;:[{&#34;color&#34;:{&#34;r&#34;:1.0,&#34;g&#34;:1.0,&#34;b&#34;:1.0,&#34;a&#34;:1.0},&#34;position&#34;:0.0},{&#34;color&#34;:{&#34;r&#34;:1.0,&#34;g&#34;:1.0,&#34;b&#34;:1.0,&#34;a&#34;:0.0},&#34;position&#34;:1.0}],&#34;stopsVar&#34;:[{&#34;color&#34;:{&#34;r&#34;:1.0,&#34;g&#34;:1.0,&#34;b&#34;:1.0,&#34;a&#34;:1.0},&#34;position&#34;:0.0},{&#34;color&#34;:{&#34;r&#34;:1.0,&#34;g&#34;:1.0,&#34;b&#34;:1.0,&#34;a&#34;:0.0},&#34;position&#34;:1.0}],&#34;transform&#34;:{&#34;m00&#34;:562.0,&#34;m01&#34;:-695.79602050781250,&#34;m02&#34;:376.89871215820312,&#34;m10&#34;:634.0,&#34;m11&#34;:616.77825927734375,&#34;m12&#34;:-345.38912963867188},&#34;opacity&#34;:0.20000000298023224,&#34;blendMode&#34;:&#34;NORMAL&#34;,&#34;visible&#34;:true}"/>
<defs>
<clipPath id="paint0_diamond_357_1080_clip_path"><path d="M285.262 3.63477L9.8291 279.066L281.839 279.039L281.848 197.849L385.073 94.623L468.271 177.82L369.045 277.045L639.085 277.018L639.086 281.018L359.388 281.047L462.613 177.819L385.073 100.279L285.847 199.506L285.839 283.039L0.171875 283.067L282.434 0.806641L285.262 3.63477Z"/></clipPath><linearGradient id="paint0_diamond_357_1080" x1="0" y1="0" x2="500" y2="500" gradientUnits="userSpaceOnUse">
<stop stop-color="white"/>
<stop offset="1" stop-color="white" stop-opacity="0"/>
</linearGradient>
</defs>
</svg>
